<svg version="1.1" id="Layer_1" xmlns="http://www.w3.org/2000/svg" xmlns:xlink="http://www.w3.org/1999/xlink" x="0px" y="0px"
	 width="100%" viewBox="0 0 900 300" enable-background="new 0 0 900 300" xml:space="preserve">
<path fill="#8039D1" opacity="1.000000" stroke="none" 
	d="
M564.000000,301.000000 
	C376.000000,301.000000 188.500000,301.000000 1.000000,301.000000 
	C1.000000,201.000000 1.000000,101.000000 1.000000,1.000000 
	C301.000000,1.000000 601.000000,1.000000 901.000000,1.000000 
	C901.000000,101.000000 901.000000,201.000000 901.000000,301.000000 
	C788.833313,301.000000 676.666687,301.000000 564.000000,301.000000 
M220.134888,25.407265 
	C220.353226,24.349058 220.571579,23.290852 221.006989,21.180681 
	C218.091507,22.715054 215.987274,23.822485 213.196442,25.051764 
	C204.416916,29.589384 195.637405,34.127007 186.438538,38.932117 
	C186.628021,39.235153 186.817505,39.538185 187.685455,40.189373 
	C192.190887,42.611774 196.263046,42.579628 199.957443,38.481064 
	C201.352844,36.932995 203.292114,35.875137 205.531830,34.963764 
	C205.793686,35.313721 206.055542,35.663677 205.951782,36.602264 
	C202.398941,40.550964 197.568100,43.722973 198.059021,50.231606 
	C197.900986,50.173943 197.742950,50.116276 197.584915,50.058609 
	C197.695557,50.040142 197.806183,50.021675 198.438171,49.486248 
	C199.639450,47.967625 200.840729,46.449005 202.094803,44.863655 
	C206.001038,47.065086 209.499649,49.036800 213.409088,51.240040 
	C215.686066,42.331146 217.772003,34.169773 220.134888,25.407265 
M110.108665,159.416183 
	C110.336205,164.105942 106.148315,168.963074 110.808823,173.597549 
	C111.395912,174.181366 110.533676,176.467041 110.027946,177.848938 
	C109.240776,179.999863 108.183456,182.051941 107.026421,184.621674 
	C113.316246,186.196686 111.403992,189.857468 109.601929,193.530441 
	C108.152008,196.485641 106.764671,199.471542 105.189865,202.779266 
	C81.515221,204.083633 58.168442,208.878586 35.900532,218.755432 
	C88.772522,210.531677 141.589752,210.542053 194.518433,218.691101 
	C193.989502,217.663483 193.399445,217.160095 192.716736,216.898773 
	C175.719589,210.392258 158.170670,206.118454 140.102448,203.963074 
	C132.714127,203.081711 125.315155,202.276642 117.948799,201.239563 
	C116.923447,201.095230 115.138206,199.374832 115.256821,199.127075 
	C116.964691,195.559708 118.572861,191.818192 121.049034,188.814270 
	C121.904549,187.776413 125.077835,188.649139 127.857170,188.649139 
	C128.326431,184.878937 128.826263,180.468399 129.453430,176.076035 
	C129.631439,174.829254 130.040497,172.650726 130.581833,172.573700 
	C134.788727,171.975067 133.651703,169.025085 132.945496,166.912720 
	C130.910049,160.824463 128.940613,154.631149 126.020195,148.955032 
	C124.440933,145.885574 124.253464,143.905685 125.765106,140.879745 
	C128.933945,134.536530 131.970795,128.059067 134.234589,121.357300 
	C135.621262,117.252174 134.970444,112.460999 138.754898,109.197792 
	C139.007645,108.979843 138.678986,108.087639 138.641342,107.713524 
	C136.881989,108.447807 135.326920,109.096832 133.771835,109.745865 
	C133.116333,107.532806 132.460846,105.319740 131.517136,102.133591 
	C129.520630,103.691551 126.456757,104.934509 125.789879,106.964813 
	C125.253174,108.598793 127.621727,111.182076 128.688736,113.350288 
	C129.103088,114.192291 129.819870,115.050842 129.820724,115.902428 
	C129.824509,119.654144 121.476738,130.489655 117.368813,131.958267 
	C118.963226,126.935654 121.906326,121.553062 114.069328,119.254593 
	C113.769035,119.166519 113.687981,118.373344 113.480385,117.919876 
	C112.137161,114.985710 110.787163,112.054634 109.443764,109.132080 
	C110.018456,108.915390 110.867203,108.595367 111.992950,108.170898 
	C103.072975,101.454987 91.355896,101.194633 83.721420,107.201118 
	C75.826080,113.412865 72.416496,124.874779 76.704376,133.197174 
	C83.310860,146.019791 93.961548,145.725510 105.636848,140.633575 
	C103.504913,146.742783 101.703667,152.387497 99.553230,157.895905 
	C98.130341,161.540680 96.206512,164.989883 94.524879,168.489304 
	C95.905777,169.019943 94.313995,178.209229 100.489922,171.564636 
	C101.007629,172.168137 101.568962,172.822479 102.744598,174.192932 
	C102.744598,171.835175 102.744598,170.497528 102.744598,169.143875 
	C104.283592,169.236298 105.553436,169.312561 105.954277,169.336624 
	C105.352837,166.402924 103.967766,163.579895 104.487251,161.166916 
	C105.110672,158.271210 107.357422,155.724991 108.901237,153.027451 
	C109.323654,153.225861 109.746078,153.424255 110.168495,153.622665 
	C110.168495,155.266861 110.168495,156.911072 110.108665,159.416183 
M276.169495,102.141373 
	C271.032593,102.412689 265.824158,102.243866 260.776428,103.064064 
	C254.105774,104.147964 250.359619,107.749962 250.215332,114.464966 
	C249.808075,133.418365 249.821701,152.391495 250.216049,171.345490 
	C250.349777,177.773163 253.721283,180.767303 260.191864,182.044601 
	C270.206604,184.021530 280.098511,183.356705 289.607147,179.479065 
	C298.297089,175.935272 304.071167,169.780792 304.518799,160.061722 
	C304.941650,150.879623 300.576385,144.242111 291.665070,140.300980 
	C300.317566,134.800476 302.258575,127.020981 300.121918,117.954689 
	C298.066010,109.230934 291.497040,105.347977 283.482452,103.295662 
	C281.393982,102.760857 279.218414,102.566231 276.169495,102.141373 
M702.374329,97.762383 
	C701.560303,100.353050 700.150757,102.919518 700.044434,105.538925 
	C699.730469,113.266754 699.932312,121.015541 699.932312,129.042328 
	C681.910095,123.524796 668.288635,127.085121 661.252930,138.559845 
	C654.246643,149.986725 655.728027,167.385269 664.463318,176.265991 
	C673.785217,185.743149 687.165588,186.311264 701.485046,177.833878 
	C701.734009,178.048096 702.039124,178.222488 702.223511,178.482452 
	C705.708923,183.397629 708.413391,184.194168 712.400513,181.460266 
	C715.831238,179.107849 715.794189,176.338211 713.093323,171.476715 
	C711.792969,169.136337 710.839111,166.264771 710.803162,163.619125 
	C710.644836,151.971161 710.954346,140.317825 710.944458,128.666550 
	C710.937256,120.181580 710.954773,111.681915 710.467590,103.217209 
	C710.145813,97.626137 708.728210,96.846626 702.374329,97.762383 
M746.303040,172.839294 
	C737.798218,170.170929 734.092712,165.919922 734.546997,159.255203 
	C742.917053,161.992706 751.406677,162.829498 760.108032,161.179276 
	C767.122375,159.849014 772.812073,156.933228 774.408569,149.277573 
	C776.014832,141.574951 773.698303,135.066040 767.462646,130.255035 
	C755.740845,121.211327 735.621643,124.013145 727.037842,135.738022 
	C717.480713,148.792435 720.147339,170.598892 732.830322,178.710312 
	C744.194519,185.978210 756.486938,185.517334 768.725586,180.793411 
	C771.848877,179.587845 774.371826,177.183273 773.070923,173.452972 
	C771.717468,169.571915 768.298218,170.950836 765.380127,171.252396 
	C759.313904,171.879272 753.236084,172.394058 746.303040,172.839294 
M525.154236,146.463440 
	C523.764465,138.460770 519.804443,132.180176 512.553650,128.308243 
	C492.600891,117.653450 469.479736,130.751617 468.401855,153.262711 
	C467.702667,167.864777 476.089355,180.024429 488.980927,183.099838 
	C511.462158,188.462952 529.000183,171.179810 525.154236,146.463440 
M377.801025,183.936508 
	C378.964783,183.958374 380.131409,184.044189 381.291840,183.992233 
	C393.077820,183.464584 402.272125,178.519821 406.906555,167.377365 
	C411.729889,155.780823 411.451385,144.230576 403.381927,133.944458 
	C401.319611,131.315643 398.222198,129.056335 395.126099,127.759903 
	C383.527771,122.903343 372.110962,123.710732 362.278534,131.800766 
	C352.336975,139.980591 350.697144,151.266983 353.566132,163.153091 
	C356.484680,175.244522 364.539703,182.137817 377.801025,183.936508 
M463.978577,113.621857 
	C467.099701,113.246140 470.570038,113.415253 471.061646,108.999084 
	C471.498505,105.074638 469.420502,103.149582 463.804810,103.062302 
	C454.151276,102.912270 444.489716,102.881920 434.838348,103.101494 
	C424.510162,103.336449 421.338440,106.450447 420.194336,116.773956 
	C420.047882,118.095024 419.990479,119.432663 419.992615,120.762459 
	C420.020874,138.409393 420.050415,156.056396 420.134094,173.703125 
	C420.142700,175.520645 419.958008,177.682007 420.837189,179.064056 
	C421.891449,180.721298 423.865295,182.555176 425.664032,182.824982 
	C429.936127,183.465836 430.937531,180.226044 430.959961,176.750275 
	C431.020752,167.321899 430.980835,157.892883 430.980835,148.010101 
	C435.820526,148.010101 439.621216,148.030151 443.421600,148.004074 
	C446.749481,147.981247 450.100037,148.129974 453.398010,147.789978 
	C456.497406,147.470428 459.332642,146.487869 459.121033,142.352463 
	C458.927032,138.560349 456.352173,137.754501 453.344452,137.522308 
	C451.025299,137.343262 448.688507,137.361938 446.359283,137.350784 
	C441.575714,137.327881 436.791962,137.343918 431.136597,137.343918 
	C431.136597,130.462662 431.046783,124.187035 431.172394,117.915726 
	C431.240814,114.498337 433.473907,113.594414 436.602356,113.628593 
	C445.425201,113.725014 454.249908,113.650551 463.978577,113.621857 
M597.674683,140.981659 
	C597.926819,152.962524 598.083618,164.946716 598.499268,176.921906 
	C598.601318,179.862000 599.018188,183.016647 603.403931,183.050720 
	C607.829529,183.085129 608.116455,180.093277 608.218506,177.011475 
	C608.576660,166.200256 608.781189,155.383881 609.159973,144.573517 
	C609.214172,143.026825 609.399170,140.893433 610.388184,140.070251 
	C615.443359,135.862701 621.332092,133.252518 627.935425,135.266479 
	C633.948975,137.100586 634.514343,142.913177 634.913696,147.974701 
	C635.645630,157.253952 635.795959,166.582092 636.062683,175.893478 
	C636.167053,179.537613 636.708191,182.783585 641.208618,182.926407 
	C645.680176,183.068329 646.796936,179.673187 646.954651,176.220016 
	C647.280945,169.074631 647.632568,161.884460 647.180542,154.763077 
	C646.773621,148.352463 646.111328,141.744675 644.122864,135.696930 
	C640.997864,126.192505 632.681641,122.070358 623.049133,124.688568 
	C618.329224,125.971481 613.944031,128.485794 609.254822,130.508560 
	C609.186646,130.335037 609.122498,129.550415 608.699280,129.202408 
	C606.921814,127.740662 604.972473,125.270439 603.210815,125.370300 
	C601.639404,125.459389 599.522827,128.223984 598.915344,130.198196 
	C597.956482,133.314163 598.059326,136.756805 597.674683,140.981659 
M831.705078,182.019989 
	C840.896790,184.747391 850.118774,185.045090 859.175354,181.689316 
	C866.265442,179.062241 870.061401,173.287903 870.131348,165.964020 
	C870.201782,158.586868 866.923584,153.725815 859.472229,150.785339 
	C855.928101,149.386795 852.171631,148.533752 848.536499,147.356094 
	C845.858582,146.488541 842.964661,145.896423 840.655457,144.418427 
	C839.093262,143.418610 837.299133,140.902573 837.562683,139.409607 
	C837.884216,137.588394 839.983032,135.289413 841.798767,134.704422 
	C844.703064,133.768692 848.053711,133.635300 851.131165,133.961105 
	C855.405823,134.413681 859.578125,135.755585 863.839111,136.436264 
	C868.064636,137.111221 870.558289,134.265564 868.893188,130.535721 
	C868.150635,128.872314 866.479065,127.177513 864.812622,126.446526 
	C855.467041,122.347153 845.856628,121.269897 836.309631,125.681694 
	C829.683655,128.743622 826.065674,134.181915 826.169922,141.551910 
	C826.274841,148.969009 831.148682,152.848099 837.526489,155.117889 
	C842.377197,156.844177 847.377869,158.145645 852.249207,159.818542 
	C855.646362,160.985199 859.027466,162.636459 858.813599,166.933853 
	C858.597717,171.271423 854.992249,172.376801 851.519348,173.257263 
	C850.078430,173.622574 848.481079,174.157578 847.109497,173.872162 
	C841.496826,172.704315 835.857605,171.525085 830.396423,169.813065 
	C826.070984,168.457062 822.771362,170.382751 824.264648,174.572205 
	C825.276245,177.410461 828.644714,179.408737 831.705078,182.019989 
M583.392395,128.363998 
	C581.571472,127.278374 579.522217,125.085762 577.990356,125.401703 
	C576.273804,125.755737 574.055054,128.224365 573.762573,130.046951 
	C573.005249,134.766068 573.441589,139.662964 572.933044,144.439041 
	C572.180603,151.506943 571.492432,158.641541 569.878479,165.537445 
	C568.746094,170.375931 565.052429,173.325241 559.570984,173.307419 
	C554.063232,173.289505 550.920166,170.100891 549.237854,165.424545 
	C548.070557,162.179901 547.281738,158.685501 547.024963,155.250275 
	C546.467407,147.793274 546.401001,140.300735 546.049927,132.826660 
	C545.868958,128.972626 545.140869,125.021118 540.225281,125.138687 
	C535.471497,125.252380 535.132324,129.405396 535.059448,132.866760 
	C534.916077,139.679672 534.632568,146.569962 535.457764,153.299377 
	C536.216125,159.483948 537.816956,165.704285 540.038086,171.530960 
	C542.228027,177.275970 546.617798,181.429108 552.891663,183.138000 
	C565.654480,186.614365 576.409973,181.080215 580.867493,168.100952 
	C585.221436,155.423264 585.002686,142.276337 583.392395,128.363998 
M63.498253,88.886116 
	C80.612091,77.998863 99.415619,73.836082 119.352310,76.377716 
	C130.426758,77.789543 142.409973,78.606285 149.262863,91.373199 
	C150.196777,89.417419 150.813553,88.125801 151.841873,85.972336 
	C160.743149,93.608131 168.521240,100.280441 176.802551,107.384407 
	C162.545715,81.494354 118.812256,60.101425 76.310753,76.832054 
	C29.430201,95.286476 14.081469,145.277420 24.920685,177.513519 
	C20.232082,140.570786 31.836180,110.691917 63.498253,88.886116 
M317.752380,124.218384 
	C317.119415,126.072632 316.016022,127.905853 315.932098,129.784622 
	C315.487183,139.742722 315.127136,149.711548 315.085175,159.678116 
	C315.060059,165.650864 315.609192,171.630569 316.021027,177.598801 
	C316.238800,180.754913 317.595459,182.937042 321.238342,183.011978 
	C324.981201,183.088959 326.012848,180.632416 326.622742,177.672409 
	C326.756378,177.023804 326.830139,176.353683 326.846039,175.691406 
	C327.037872,167.707977 327.394104,159.722961 327.342407,151.740753 
	C327.291504,143.872757 329.130432,141.112183 336.742371,138.971786 
	C339.771240,138.120071 343.266052,137.922974 345.678284,136.205399 
	C347.532440,134.885193 349.079651,131.504532 348.776489,129.315338 
	C348.546631,127.655685 345.066223,125.120613 343.244446,125.287743 
	C339.643951,125.618057 336.053375,127.274109 332.728027,128.924591 
	C330.766022,129.898392 329.320465,131.912613 327.540466,133.553131 
	C324.801422,122.567665 324.562012,122.316345 317.752380,124.218384 
M797.284790,129.769547 
	C797.066284,126.128029 796.048035,123.039925 791.638306,123.055016 
	C787.543091,123.069031 786.757080,126.306679 786.732361,129.315704 
	C786.601562,145.242599 786.646973,161.171707 786.757629,177.099167 
	C786.780212,180.353760 787.975403,182.968277 791.983154,183.004456 
	C796.371155,183.044052 797.224426,179.988983 797.373474,176.685623 
	C797.747803,168.385284 798.034302,160.075134 798.079590,151.767426 
	C798.124451,143.538681 799.887390,141.047226 807.948975,138.871796 
	C810.824768,138.095764 814.165527,137.897827 816.397339,136.233475 
	C818.260681,134.843933 819.881714,131.561966 819.601318,129.375763 
	C819.388184,127.714561 815.907959,125.144951 814.078491,125.300270 
	C810.483276,125.605484 806.890625,127.250931 803.561462,128.881927 
	C801.589050,129.848206 800.122253,131.846497 798.082947,133.693344 
	C797.767578,132.331375 797.556274,131.418823 797.284790,129.769547 
M130.677795,65.891548 
	C157.800232,72.894028 178.689209,88.301666 192.644516,112.623283 
	C206.630783,136.998840 208.700150,162.974152 201.991714,190.143036 
	C203.396698,188.830521 204.402145,187.442337 204.873306,185.891815 
	C215.397217,151.260376 208.869171,120.206146 185.137909,92.843559 
	C180.765762,87.802383 180.667755,87.887390 186.021347,83.746658 
	C184.278732,82.166977 182.505844,80.559837 180.747192,78.965607 
	C177.167816,83.965927 176.614914,83.709923 171.315033,80.576263 
	C163.620895,76.026962 155.778168,71.590004 147.584351,68.069862 
	C141.312836,65.375557 134.584351,63.079460 126.204834,64.336929 
	C128.190887,65.062988 129.069626,65.384247 130.677795,65.891548 
M37.376575,157.563171 
	C38.201397,143.329620 42.700817,130.104324 49.076233,117.393791 
	C30.736563,135.380936 26.846464,172.969894 41.602062,194.457657 
	C40.323040,183.702698 38.827065,171.123459 37.376575,157.563171 
M189.048248,68.843010 
	C190.637390,70.288765 192.226532,71.734520 193.815674,73.180283 
	C192.984055,72.397011 192.152451,71.613739 191.320847,70.830467 
	C193.581894,69.609253 195.842941,68.388039 198.103989,67.166824 
	C197.754852,67.861862 197.405716,68.556900 197.056580,69.251938 
	C195.424179,67.480408 193.791779,65.708878 192.159363,63.937344 
	C192.676605,63.548267 193.193848,63.159191 193.711075,62.770115 
	C192.008987,64.635880 190.306900,66.501648 189.048248,68.843010 
M150.461548,100.096169 
	C150.336639,100.204880 150.164612,100.292244 150.102493,100.429390 
	C150.056900,100.530090 150.109070,100.749413 150.196350,100.825005 
	C152.025620,102.408936 153.866119,103.979912 155.534637,105.408127 
	C157.205704,103.882957 159.089615,102.163528 160.705566,100.688660 
	C158.944305,99.102325 157.149734,97.485977 155.536392,96.032860 
	C154.176605,97.192070 152.600555,98.535637 150.461548,100.096169 
M176.082291,53.971558 
	C177.614410,55.802223 179.146545,57.632889 180.678665,59.463554 
	C180.033264,58.855679 179.387878,58.247807 178.742493,57.639931 
	C180.827621,56.233253 182.912766,54.826576 184.997910,53.419895 
	C184.679459,54.270382 184.361023,55.120869 184.042587,55.971355 
	C182.694672,53.934345 181.346741,51.897339 180.631943,50.817101 
	C179.834137,51.375610 178.228455,52.499695 176.082291,53.971558 
M163.659119,68.984131 
	C165.397339,70.345772 167.135574,71.707405 168.847290,73.048279 
	C170.364563,71.647629 172.221313,69.933601 173.841995,68.437500 
	C172.183792,66.925003 170.304764,65.211082 168.780289,63.820553 
	C166.879745,65.404449 165.032990,66.943527 163.659119,68.984131 
M181.758789,116.802223 
	C183.361725,119.691879 184.964645,122.581535 186.925217,126.115929 
	C186.522339,119.588669 180.823090,109.676521 176.056992,107.693764 
	C178.110168,110.964287 179.744431,113.567505 181.758789,116.802223 
z"/>
<path fill="#FCFAFE" opacity="1.000000" stroke="none" 
	d="
M110.138580,158.985718 
	C110.168495,156.911072 110.168495,155.266861 110.168495,153.622665 
	C109.746078,153.424255 109.323654,153.225861 108.901237,153.027451 
	C107.357422,155.724991 105.110672,158.271210 104.487251,161.166916 
	C103.967766,163.579895 105.352837,166.402924 105.954277,169.336624 
	C105.553436,169.312561 104.283592,169.236298 102.744598,169.143875 
	C102.744598,170.497528 102.744598,171.835175 102.744598,174.192932 
	C101.568962,172.822479 101.007629,172.168137 100.489922,171.564636 
	C94.313995,178.209229 95.905777,169.019943 94.524879,168.489304 
	C96.206512,164.989883 98.130341,161.540680 99.553230,157.895905 
	C101.703667,152.387497 103.504913,146.742783 105.636848,140.633575 
	C93.961548,145.725510 83.310860,146.019791 76.704376,133.197174 
	C72.416496,124.874779 75.826080,113.412865 83.721420,107.201118 
	C91.355896,101.194633 103.072975,101.454987 111.992950,108.170898 
	C110.867203,108.595367 110.018456,108.915390 109.443764,109.132080 
	C110.787163,112.054634 112.137161,114.985710 113.480385,117.919876 
	C113.687981,118.373344 113.769035,119.166519 114.069328,119.254593 
	C121.906326,121.553062 118.963226,126.935654 117.368813,131.958267 
	C121.476738,130.489655 129.824509,119.654144 129.820724,115.902428 
	C129.819870,115.050842 129.103088,114.192291 128.688736,113.350288 
	C127.621727,111.182076 125.253174,108.598793 125.789879,106.964813 
	C126.456757,104.934509 129.520630,103.691551 131.517136,102.133591 
	C132.460846,105.319740 133.116333,107.532806 133.771835,109.745865 
	C135.326920,109.096832 136.881989,108.447807 138.641342,107.713524 
	C138.678986,108.087639 139.007645,108.979843 138.754898,109.197792 
	C134.970444,112.460999 135.621262,117.252174 134.234589,121.357300 
	C131.970795,128.059067 128.933945,134.536530 125.765106,140.879745 
	C124.253464,143.905685 124.440933,145.885574 126.020195,148.955032 
	C128.940613,154.631149 130.910049,160.824463 132.945496,166.912720 
	C133.651703,169.025085 134.788727,171.975067 130.581833,172.573700 
	C130.040497,172.650726 129.631439,174.829254 129.453430,176.076035 
	C128.826263,180.468399 128.326431,184.878937 127.857170,188.649139 
	C125.077835,188.649139 121.904549,187.776413 121.049034,188.814270 
	C118.572861,191.818192 116.964691,195.559708 115.256821,199.127075 
	C115.138206,199.374832 116.923447,201.095230 117.948799,201.239563 
	C125.315155,202.276642 132.714127,203.081711 140.102448,203.963074 
	C158.170670,206.118454 175.719589,210.392258 192.716736,216.898773 
	C193.399445,217.160095 193.989502,217.663483 194.518433,218.691101 
	C141.589752,210.542053 88.772522,210.531677 35.900532,218.755432 
	C58.168442,208.878586 81.515221,204.083633 105.189865,202.779266 
	C106.764671,199.471542 108.152008,196.485641 109.601929,193.530441 
	C111.403992,189.857468 113.316246,186.196686 107.026421,184.621674 
	C108.183456,182.051941 109.240776,179.999863 110.027946,177.848938 
	C110.533676,176.467041 111.395912,174.181366 110.808823,173.597549 
	C106.148315,168.963074 110.336205,164.105942 110.138580,158.985718 
z"/>
<path fill="#FCFBFE" opacity="1.000000" stroke="none" 
	d="
M276.626160,102.178375 
	C279.218414,102.566231 281.393982,102.760857 283.482452,103.295662 
	C291.497040,105.347977 298.066010,109.230934 300.121918,117.954689 
	C302.258575,127.020981 300.317566,134.800476 291.665070,140.300980 
	C300.576385,144.242111 304.941650,150.879623 304.518799,160.061722 
	C304.071167,169.780792 298.297089,175.935272 289.607147,179.479065 
	C280.098511,183.356705 270.206604,184.021530 260.191864,182.044601 
	C253.721283,180.767303 250.349777,177.773163 250.216049,171.345490 
	C249.821701,152.391495 249.808075,133.418365 250.215332,114.464966 
	C250.359619,107.749962 254.105774,104.147964 260.776428,103.064064 
	C265.824158,102.243866 271.032593,102.412689 276.626160,102.178375 
M282.342682,171.211029 
	C283.286560,170.898178 284.263214,170.659607 285.169067,170.260483 
	C291.299774,167.559250 293.772339,163.354324 293.111389,156.836105 
	C292.610504,151.896530 289.295502,148.074310 283.193390,147.201675 
	C276.079468,146.184357 268.828400,146.126221 261.064117,145.614090 
	C261.064117,152.893417 260.877502,159.026459 261.128479,165.141541 
	C261.301453,169.355637 263.779266,172.004456 268.140350,172.036057 
	C272.604279,172.068436 277.071320,171.672623 282.342682,171.211029 
M274.683899,136.500839 
	C277.096710,135.903091 279.592224,135.526535 281.905029,134.661438 
	C286.684174,132.873856 289.612762,129.529037 289.549896,124.159019 
	C289.491760,119.195511 286.523285,114.996696 281.027435,113.890305 
	C276.399933,112.958725 271.405182,112.696136 266.777679,113.429253 
	C264.611816,113.772377 261.597595,116.978104 261.287903,119.208588 
	C260.502197,124.867188 261.026917,130.707733 261.026917,136.654343 
	C265.608459,136.654343 269.713623,136.654343 274.683899,136.500839 
z"/>
<path fill="#FCFBFE" opacity="1.000000" stroke="none" 
	d="
M702.726929,97.563019 
	C708.728210,96.846626 710.145813,97.626137 710.467590,103.217209 
	C710.954773,111.681915 710.937256,120.181580 710.944458,128.666550 
	C710.954346,140.317825 710.644836,151.971161 710.803162,163.619125 
	C710.839111,166.264771 711.792969,169.136337 713.093323,171.476715 
	C715.794189,176.338211 715.831238,179.107849 712.400513,181.460266 
	C708.413391,184.194168 705.708923,183.397629 702.223511,178.482452 
	C702.039124,178.222488 701.734009,178.048096 701.483398,177.835846 
	C687.165588,186.311264 673.785217,185.743149 664.463318,176.265991 
	C655.728027,167.385269 654.246643,149.986725 661.252930,138.559845 
	C668.288635,127.085121 681.910095,123.524796 699.932312,129.042328 
	C699.932312,121.015541 699.730469,113.266754 700.044434,105.538925 
	C700.150757,102.919518 701.560303,100.353050 702.726929,97.563019 
M693.638855,138.482178 
	C685.381226,135.011108 676.655701,136.721802 671.872009,142.749664 
	C666.884644,149.034149 666.979797,159.808578 672.081726,166.500977 
	C678.245300,174.585968 691.968079,175.356628 697.335266,167.919220 
	C702.547363,160.696884 700.902100,145.072891 693.638855,138.482178 
z"/>
<path fill="#FCFAFE" opacity="1.000000" stroke="none" 
	d="
M746.733032,172.897095 
	C753.236084,172.394058 759.313904,171.879272 765.380127,171.252396 
	C768.298218,170.950836 771.717468,169.571915 773.070923,173.452972 
	C774.371826,177.183273 771.848877,179.587845 768.725586,180.793411 
	C756.486938,185.517334 744.194519,185.978210 732.830322,178.710312 
	C720.147339,170.598892 717.480713,148.792435 727.037842,135.738022 
	C735.621643,124.013145 755.740845,121.211327 767.462646,130.255035 
	C773.698303,135.066040 776.014832,141.574951 774.408569,149.277573 
	C772.812073,156.933228 767.122375,159.849014 760.108032,161.179276 
	C751.406677,162.829498 742.917053,161.992706 734.546997,159.255203 
	C734.092712,165.919922 737.798218,170.170929 746.733032,172.897095 
M739.902893,151.899826 
	C745.350586,152.114166 750.807800,152.614197 756.242432,152.434250 
	C759.434937,152.328552 762.498108,150.986893 763.133118,147.109909 
	C763.786255,143.121872 762.506409,139.867310 759.117798,137.610962 
	C752.596252,133.268570 740.078552,135.980881 735.857666,142.594238 
	C732.399475,148.012466 732.982483,149.660522 739.902893,151.899826 
z"/>
<path fill="#FCFAFE" opacity="1.000000" stroke="none" 
	d="
M525.226440,146.886703 
	C529.000183,171.179810 511.462158,188.462952 488.980927,183.099838 
	C476.089355,180.024429 467.702667,167.864777 468.401855,153.262711 
	C469.479736,130.751617 492.600891,117.653450 512.553650,128.308243 
	C519.804443,132.180176 523.764465,138.460770 525.226440,146.886703 
M490.853638,136.878830 
	C482.022736,141.401657 478.428040,150.090912 481.024902,160.931946 
	C482.438385,166.832825 485.725006,171.379547 491.862335,172.732147 
	C498.460052,174.186234 504.821869,173.560562 509.700867,168.015839 
	C514.934204,162.068405 515.786072,149.731903 511.491913,142.608948 
	C507.765472,136.427689 501.215668,134.442581 490.853638,136.878830 
z"/>
<path fill="#FCFAFE" opacity="1.000000" stroke="none" 
	d="
M377.356689,183.905151 
	C364.539703,182.137817 356.484680,175.244522 353.566132,163.153091 
	C350.697144,151.266983 352.336975,139.980591 362.278534,131.800766 
	C372.110962,123.710732 383.527771,122.903343 395.126099,127.759903 
	C398.222198,129.056335 401.319611,131.315643 403.381927,133.944458 
	C411.451385,144.230576 411.729889,155.780823 406.906555,167.377365 
	C402.272125,178.519821 393.077820,183.464584 381.291840,183.992233 
	C380.131409,184.044189 378.964783,183.958374 377.356689,183.905151 
M364.874329,149.609268 
	C364.952881,153.555222 364.516357,157.598450 365.238800,161.422775 
	C366.167267,166.337769 369.093964,170.175598 373.995361,172.146255 
	C380.620667,174.810013 388.884735,173.214264 393.383087,168.364319 
	C398.533997,162.810806 399.826752,151.472122 396.171936,143.903336 
	C393.274994,137.903946 387.909698,135.214218 379.978943,135.785385 
	C372.280212,136.339859 367.753937,140.275604 364.874329,149.609268 
z"/>
<path fill="#FCFAFE" opacity="1.000000" stroke="none" 
	d="
M463.526245,113.632645 
	C454.249908,113.650551 445.425201,113.725014 436.602356,113.628593 
	C433.473907,113.594414 431.240814,114.498337 431.172394,117.915726 
	C431.046783,124.187035 431.136597,130.462662 431.136597,137.343918 
	C436.791962,137.343918 441.575714,137.327881 446.359283,137.350784 
	C448.688507,137.361938 451.025299,137.343262 453.344452,137.522308 
	C456.352173,137.754501 458.927032,138.560349 459.121033,142.352463 
	C459.332642,146.487869 456.497406,147.470428 453.398010,147.789978 
	C450.100037,148.129974 446.749481,147.981247 443.421600,148.004074 
	C439.621216,148.030151 435.820526,148.010101 430.980835,148.010101 
	C430.980835,157.892883 431.020752,167.321899 430.959961,176.750275 
	C430.937531,180.226044 429.936127,183.465836 425.664032,182.824982 
	C423.865295,182.555176 421.891449,180.721298 420.837189,179.064056 
	C419.958008,177.682007 420.142700,175.520645 420.134094,173.703125 
	C420.050415,156.056396 420.020874,138.409393 419.992615,120.762459 
	C419.990479,119.432663 420.047882,118.095024 420.194336,116.773956 
	C421.338440,106.450447 424.510162,103.336449 434.838348,103.101494 
	C444.489716,102.881920 454.151276,102.912270 463.804810,103.062302 
	C469.420502,103.149582 471.498505,105.074638 471.061646,108.999084 
	C470.570038,113.415253 467.099701,113.246140 463.526245,113.632645 
z"/>
<path fill="#FDFCFE" opacity="1.000000" stroke="none" 
	d="
M597.693726,140.521423 
	C598.059326,136.756805 597.956482,133.314163 598.915344,130.198196 
	C599.522827,128.223984 601.639404,125.459389 603.210815,125.370300 
	C604.972473,125.270439 606.921814,127.740662 608.699280,129.202408 
	C609.122498,129.550415 609.186646,130.335037 609.254822,130.508560 
	C613.944031,128.485794 618.329224,125.971481 623.049133,124.688568 
	C632.681641,122.070358 640.997864,126.192505 644.122864,135.696930 
	C646.111328,141.744675 646.773621,148.352463 647.180542,154.763077 
	C647.632568,161.884460 647.280945,169.074631 646.954651,176.220016 
	C646.796936,179.673187 645.680176,183.068329 641.208618,182.926407 
	C636.708191,182.783585 636.167053,179.537613 636.062683,175.893478 
	C635.795959,166.582092 635.645630,157.253952 634.913696,147.974701 
	C634.514343,142.913177 633.948975,137.100586 627.935425,135.266479 
	C621.332092,133.252518 615.443359,135.862701 610.388184,140.070251 
	C609.399170,140.893433 609.214172,143.026825 609.159973,144.573517 
	C608.781189,155.383881 608.576660,166.200256 608.218506,177.011475 
	C608.116455,180.093277 607.829529,183.085129 603.403931,183.050720 
	C599.018188,183.016647 598.601318,179.862000 598.499268,176.921906 
	C598.083618,164.946716 597.926819,152.962524 597.693726,140.521423 
z"/>
<path fill="#FCFAFE" opacity="1.000000" stroke="none" 
	d="
M831.332092,181.901337 
	C828.644714,179.408737 825.276245,177.410461 824.264648,174.572205 
	C822.771362,170.382751 826.070984,168.457062 830.396423,169.813065 
	C835.857605,171.525085 841.496826,172.704315 847.109497,173.872162 
	C848.481079,174.157578 850.078430,173.622574 851.519348,173.257263 
	C854.992249,172.376801 858.597717,171.271423 858.813599,166.933853 
	C859.027466,162.636459 855.646362,160.985199 852.249207,159.818542 
	C847.377869,158.145645 842.377197,156.844177 837.526489,155.117889 
	C831.148682,152.848099 826.274841,148.969009 826.169922,141.551910 
	C826.065674,134.181915 829.683655,128.743622 836.309631,125.681694 
	C845.856628,121.269897 855.467041,122.347153 864.812622,126.446526 
	C866.479065,127.177513 868.150635,128.872314 868.893188,130.535721 
	C870.558289,134.265564 868.064636,137.111221 863.839111,136.436264 
	C859.578125,135.755585 855.405823,134.413681 851.131165,133.961105 
	C848.053711,133.635300 844.703064,133.768692 841.798767,134.704422 
	C839.983032,135.289413 837.884216,137.588394 837.562683,139.409607 
	C837.299133,140.902573 839.093262,143.418610 840.655457,144.418427 
	C842.964661,145.896423 845.858582,146.488541 848.536499,147.356094 
	C852.171631,148.533752 855.928101,149.386795 859.472229,150.785339 
	C866.923584,153.725815 870.201782,158.586868 870.131348,165.964020 
	C870.061401,173.287903 866.265442,179.062241 859.175354,181.689316 
	C850.118774,185.045090 840.896790,184.747391 831.332092,181.901337 
z"/>
<path fill="#FDFBFE" opacity="1.000000" stroke="none" 
	d="
M583.555481,128.739914 
	C585.002686,142.276337 585.221436,155.423264 580.867493,168.100952 
	C576.409973,181.080215 565.654480,186.614365 552.891663,183.138000 
	C546.617798,181.429108 542.228027,177.275970 540.038086,171.530960 
	C537.816956,165.704285 536.216125,159.483948 535.457764,153.299377 
	C534.632568,146.569962 534.916077,139.679672 535.059448,132.866760 
	C535.132324,129.405396 535.471497,125.252380 540.225281,125.138687 
	C545.140869,125.021118 545.868958,128.972626 546.049927,132.826660 
	C546.401001,140.300735 546.467407,147.793274 547.024963,155.250275 
	C547.281738,158.685501 548.070557,162.179901 549.237854,165.424545 
	C550.920166,170.100891 554.063232,173.289505 559.570984,173.307419 
	C565.052429,173.325241 568.746094,170.375931 569.878479,165.537445 
	C571.492432,158.641541 572.180603,151.506943 572.933044,144.439041 
	C573.441589,139.662964 573.005249,134.766068 573.762573,130.046951 
	C574.055054,128.224365 576.273804,125.755737 577.990356,125.401703 
	C579.522217,125.085762 581.571472,127.278374 583.555481,128.739914 
z"/>
<path fill="#F6F1FC" opacity="1.000000" stroke="none" 
	d="
M63.177174,89.058533 
	C31.836180,110.691917 20.232082,140.570786 24.920685,177.513519 
	C14.081469,145.277420 29.430201,95.286476 76.310753,76.832054 
	C118.812256,60.101425 162.545715,81.494354 176.802551,107.384407 
	C168.521240,100.280441 160.743149,93.608131 151.841873,85.972336 
	C150.813553,88.125801 150.196777,89.417419 149.262863,91.373199 
	C142.409973,78.606285 130.426758,77.789543 119.352310,76.377716 
	C99.415619,73.836082 80.612091,77.998863 63.177174,89.058533 
z"/>
<path fill="#FDFBFE" opacity="1.000000" stroke="none" 
	d="
M318.065002,123.968704 
	C324.562012,122.316345 324.801422,122.567665 327.540466,133.553131 
	C329.320465,131.912613 330.766022,129.898392 332.728027,128.924591 
	C336.053375,127.274109 339.643951,125.618057 343.244446,125.287743 
	C345.066223,125.120613 348.546631,127.655685 348.776489,129.315338 
	C349.079651,131.504532 347.532440,134.885193 345.678284,136.205399 
	C343.266052,137.922974 339.771240,138.120071 336.742371,138.971786 
	C329.130432,141.112183 327.291504,143.872757 327.342407,151.740753 
	C327.394104,159.722961 327.037872,167.707977 326.846039,175.691406 
	C326.830139,176.353683 326.756378,177.023804 326.622742,177.672409 
	C326.012848,180.632416 324.981201,183.088959 321.238342,183.011978 
	C317.595459,182.937042 316.238800,180.754913 316.021027,177.598801 
	C315.609192,171.630569 315.060059,165.650864 315.085175,159.678116 
	C315.127136,149.711548 315.487183,139.742722 315.932098,129.784622 
	C316.016022,127.905853 317.119415,126.072632 318.065002,123.968704 
z"/>
<path fill="#FDFBFE" opacity="1.000000" stroke="none" 
	d="
M797.314880,130.137909 
	C797.556274,131.418823 797.767578,132.331375 798.082947,133.693344 
	C800.122253,131.846497 801.589050,129.848206 803.561462,128.881927 
	C806.890625,127.250931 810.483276,125.605484 814.078491,125.300270 
	C815.907959,125.144951 819.388184,127.714561 819.601318,129.375763 
	C819.881714,131.561966 818.260681,134.843933 816.397339,136.233475 
	C814.165527,137.897827 810.824768,138.095764 807.948975,138.871796 
	C799.887390,141.047226 798.124451,143.538681 798.079590,151.767426 
	C798.034302,160.075134 797.747803,168.385284 797.373474,176.685623 
	C797.224426,179.988983 796.371155,183.044052 791.983154,183.004456 
	C787.975403,182.968277 786.780212,180.353760 786.757629,177.099167 
	C786.646973,161.171707 786.601562,145.242599 786.732361,129.315704 
	C786.757080,126.306679 787.543091,123.069031 791.638306,123.055016 
	C796.048035,123.039925 797.066284,126.128029 797.314880,130.137909 
z"/>
<path fill="#F6F1FC" opacity="1.000000" stroke="none" 
	d="
M130.313080,65.798523 
	C129.069626,65.384247 128.190887,65.062988 126.204834,64.336929 
	C134.584351,63.079460 141.312836,65.375557 147.584351,68.069862 
	C155.778168,71.590004 163.620895,76.026962 171.315033,80.576263 
	C176.614914,83.709923 177.167816,83.965927 180.747192,78.965607 
	C182.505844,80.559837 184.278732,82.166977 186.021347,83.746658 
	C180.667755,87.887390 180.765762,87.802383 185.137909,92.843559 
	C208.869171,120.206146 215.397217,151.260376 204.873306,185.891815 
	C204.402145,187.442337 203.396698,188.830521 201.991714,190.143036 
	C208.700150,162.974152 206.630783,136.998840 192.644516,112.623283 
	C178.689209,88.301666 157.800232,72.894028 130.313080,65.798523 
z"/>
<path fill="#F8F3FC" opacity="1.000000" stroke="none" 
	d="
M204.983459,34.593819 
	C203.292114,35.875137 201.352844,36.932995 199.957443,38.481064 
	C196.263046,42.579628 192.190887,42.611774 187.314636,39.720425 
	C186.915176,39.055859 186.886520,38.860241 186.857880,38.664627 
	C195.637405,34.127007 204.416916,29.589384 213.720978,25.201363 
	C216.116318,25.570108 217.987137,25.789255 219.857941,26.008400 
	C217.772003,34.169773 215.686066,42.331146 213.409088,51.240040 
	C209.499649,49.036800 206.001038,47.065086 202.094803,44.863655 
	C200.840729,46.449005 199.639450,47.967625 198.156158,49.725487 
	C197.874146,49.964725 197.819443,49.983612 197.819443,49.983612 
	C197.568100,43.722973 202.398941,40.550964 206.440292,36.206490 
	C209.082886,33.781223 211.236969,31.751726 213.391052,29.722229 
	C212.857864,29.179424 212.324677,28.636620 211.791504,28.093817 
	C209.522156,30.260483 207.252808,32.427147 204.983459,34.593819 
z"/>
<path fill="#F5EFFB" opacity="1.000000" stroke="none" 
	d="
M37.353836,158.053711 
	C38.827065,171.123459 40.323040,183.702698 41.602062,194.457657 
	C26.846464,172.969894 30.736563,135.380936 49.076233,117.393791 
	C42.700817,130.104324 38.201397,143.329620 37.353836,158.053711 
z"/>
<path fill="#F2EAFA" opacity="1.000000" stroke="none" 
	d="
M188.826538,68.605209 
	C190.306900,66.501648 192.008987,64.635880 193.711075,62.770115 
	C193.193848,63.159191 192.676605,63.548267 192.159363,63.937344 
	C193.791779,65.708878 195.424179,67.480408 197.056580,69.251938 
	C197.405716,68.556900 197.754852,67.861862 198.103989,67.166824 
	C195.842941,68.388039 193.581894,69.609253 191.320847,70.830467 
	C192.152451,71.613739 192.984055,72.397011 193.815674,73.180283 
	C192.226532,71.734520 190.637390,70.288765 188.826538,68.605209 
z"/>
<path fill="#EEE5F9" opacity="1.000000" stroke="none" 
	d="
M150.743027,99.987686 
	C152.600555,98.535637 154.176605,97.192070 155.536392,96.032860 
	C157.149734,97.485977 158.944305,99.102325 160.705566,100.688660 
	C159.089615,102.163528 157.205704,103.882957 155.534637,105.408127 
	C153.866119,103.979912 152.025620,102.408936 150.196350,100.825005 
	C150.109070,100.749413 150.056900,100.530090 150.102493,100.429390 
	C150.164612,100.292244 150.336639,100.204880 150.743027,99.987686 
z"/>
<path fill="#F2EAFA" opacity="1.000000" stroke="none" 
	d="
M176.352524,53.797668 
	C178.228455,52.499695 179.834137,51.375610 180.631943,50.817101 
	C181.346741,51.897339 182.694672,53.934345 184.042587,55.971355 
	C184.361023,55.120869 184.679459,54.270382 184.997910,53.419895 
	C182.912766,54.826576 180.827621,56.233253 178.742493,57.639931 
	C179.387878,58.247807 180.033264,58.855679 180.678665,59.463554 
	C179.146545,57.632889 177.614410,55.802223 176.352524,53.797668 
z"/>
<path fill="#F2EAFA" opacity="1.000000" stroke="none" 
	d="
M163.422668,68.733368 
	C165.032990,66.943527 166.879745,65.404449 168.780289,63.820553 
	C170.304764,65.211082 172.183792,66.925003 173.841995,68.437500 
	C172.221313,69.933601 170.364563,71.647629 168.847290,73.048279 
	C167.135574,71.707405 165.397339,70.345772 163.422668,68.733368 
z"/>
<path fill="#E7D9F6" opacity="1.000000" stroke="none" 
	d="
M181.568726,116.486473 
	C179.744431,113.567505 178.110168,110.964287 176.056992,107.693764 
	C180.823090,109.676521 186.522339,119.588669 186.925217,126.115929 
	C184.964645,122.581535 183.361725,119.691879 181.568726,116.486473 
z"/>
<path fill="#F2EAFA" opacity="1.000000" stroke="none" 
	d="
M205.257645,34.778790 
	C207.252808,32.427147 209.522156,30.260483 211.791504,28.093817 
	C212.324677,28.636620 212.857864,29.179424 213.391052,29.722229 
	C211.236969,31.751726 209.082886,33.781223 206.623108,35.912178 
	C206.055542,35.663677 205.793686,35.313721 205.257645,34.778790 
z"/>
<path fill="#F2EAFA" opacity="1.000000" stroke="none" 
	d="
M219.996414,25.707832 
	C217.987137,25.789255 216.116318,25.570108 214.064270,25.140438 
	C215.987274,23.822485 218.091507,22.715054 221.006989,21.180681 
	C220.571579,23.290852 220.353226,24.349058 219.996414,25.707832 
z"/>
<path fill="#F8F3FC" opacity="1.000000" stroke="none" 
	d="
M197.895477,49.983967 
	C197.806183,50.021675 197.695557,50.040142 197.584915,50.058609 
	C197.742950,50.116276 197.900986,50.173943 197.939240,50.107609 
	C197.819443,49.983612 197.874146,49.964725 197.895477,49.983967 
z"/>
<path fill="#F2EAFA" opacity="1.000000" stroke="none" 
	d="
M186.648209,38.798370 
	C186.886520,38.860241 186.915176,39.055859 186.975403,39.546349 
	C186.817505,39.538185 186.628021,39.235153 186.648209,38.798370 
z"/>
<path fill="#813AD1" opacity="1.000000" stroke="none" 
	d="
M281.939850,171.337631 
	C277.071320,171.672623 272.604279,172.068436 268.140350,172.036057 
	C263.779266,172.004456 261.301453,169.355637 261.128479,165.141541 
	C260.877502,159.026459 261.064117,152.893417 261.064117,145.614090 
	C268.828400,146.126221 276.079468,146.184357 283.193390,147.201675 
	C289.295502,148.074310 292.610504,151.896530 293.111389,156.836105 
	C293.772339,163.354324 291.299774,167.559250 285.169067,170.260483 
	C284.263214,170.659607 283.286560,170.898178 281.939850,171.337631 
z"/>
<path fill="#823AD2" opacity="1.000000" stroke="none" 
	d="
M274.251343,136.577591 
	C269.713623,136.654343 265.608459,136.654343 261.026917,136.654343 
	C261.026917,130.707733 260.502197,124.867188 261.287903,119.208588 
	C261.597595,116.978104 264.611816,113.772377 266.777679,113.429253 
	C271.405182,112.696136 276.399933,112.958725 281.027435,113.890305 
	C286.523285,114.996696 289.491760,119.195511 289.549896,124.159019 
	C289.612762,129.529037 286.684174,132.873856 281.905029,134.661438 
	C279.592224,135.526535 277.096710,135.903091 274.251343,136.577591 
z"/>
<path fill="#823BD2" opacity="1.000000" stroke="none" 
	d="
M693.960693,138.705566 
	C700.902100,145.072891 702.547363,160.696884 697.335266,167.919220 
	C691.968079,175.356628 678.245300,174.585968 672.081726,166.500977 
	C666.979797,159.808578 666.884644,149.034149 671.872009,142.749664 
	C676.655701,136.721802 685.381226,135.011108 693.960693,138.705566 
z"/>
<path fill="#823CD2" opacity="1.000000" stroke="none" 
	d="
M739.491089,151.800629 
	C732.982483,149.660522 732.399475,148.012466 735.857666,142.594238 
	C740.078552,135.980881 752.596252,133.268570 759.117798,137.610962 
	C762.506409,139.867310 763.786255,143.121872 763.133118,147.109909 
	C762.498108,150.986893 759.434937,152.328552 756.242432,152.434250 
	C750.807800,152.614197 745.350586,152.114166 739.491089,151.800629 
z"/>
<path fill="#813AD1" opacity="1.000000" stroke="none" 
	d="
M491.238037,136.732880 
	C501.215668,134.442581 507.765472,136.427689 511.491913,142.608948 
	C515.786072,149.731903 514.934204,162.068405 509.700867,168.015839 
	C504.821869,173.560562 498.460052,174.186234 491.862335,172.732147 
	C485.725006,171.379547 482.438385,166.832825 481.024902,160.931946 
	C478.428040,150.090912 482.022736,141.401657 491.238037,136.732880 
z"/>
<path fill="#813AD1" opacity="1.000000" stroke="none" 
	d="
M364.938141,149.208832 
	C367.753937,140.275604 372.280212,136.339859 379.978943,135.785385 
	C387.909698,135.214218 393.274994,137.903946 396.171936,143.903336 
	C399.826752,151.472122 398.533997,162.810806 393.383087,168.364319 
	C388.884735,173.214264 380.620667,174.810013 373.995361,172.146255 
	C369.093964,170.175598 366.167267,166.337769 365.238800,161.422775 
	C364.516357,157.598450 364.952881,153.555222 364.938141,149.208832 
z"/>
</svg>