<svg version="1.1" id="Layer_1" xmlns="http://www.w3.org/2000/svg" xmlns:xlink="http://www.w3.org/1999/xlink" x="0px" y="0px"
	 width="100%" viewBox="0 0 500 500" enable-background="new 0 0 500 500" xml:space="preserve">
<path fill="#8039D1" opacity="1.000000" stroke="none" 
	d="
M283.000000,501.000000 
	C188.666687,501.000000 94.833382,501.000000 1.000050,501.000000 
	C1.000034,334.333405 1.000034,167.666794 1.000017,1.000140 
	C167.666565,1.000093 334.333130,1.000093 500.999756,1.000047 
	C500.999847,167.666519 500.999847,334.333038 500.999939,500.999786 
	C428.500000,501.000000 356.000000,501.000000 283.000000,501.000000 
M449.026489,55.339455 
	C449.213440,54.315758 449.400360,53.292061 449.788696,51.165562 
	C425.467285,63.451046 402.060730,75.274406 377.636780,87.611687 
	C383.651642,89.602097 388.724030,91.033730 393.587738,92.985405 
	C396.376526,94.104477 398.161316,93.351921 400.257080,91.626717 
	C411.060730,82.733299 421.923920,73.910759 432.874084,65.198952 
	C433.963989,64.331825 435.781921,64.379814 436.863739,64.562935 
	C428.183960,73.501839 419.801575,82.758858 410.709930,91.257103 
	C405.481689,96.144127 404.287170,102.067657 403.796844,108.795692 
	C406.423523,105.335449 409.050171,101.875206 411.825958,98.218536 
	C419.361969,102.739502 426.427399,106.978157 434.165253,111.620216 
	C439.127380,92.659470 443.941376,74.264809 449.026489,55.339455 
M387.806427,271.268768 
	C376.484375,236.130295 356.094635,207.486328 326.901306,184.837769 
	C319.890167,179.398453 309.974457,177.240128 306.349487,167.537216 
	C305.650940,168.532043 305.002594,169.455383 304.366150,170.361786 
	C220.244308,127.409180 132.369598,159.805130 88.441956,216.172913 
	C43.651386,273.648010 45.073082,345.454987 66.028374,388.505585 
	C45.280304,318.210541 57.838329,255.725784 111.805496,204.743759 
	C167.845795,151.803314 247.161011,149.992966 298.991150,176.851898 
	C297.489044,177.767746 296.101654,178.613647 293.876617,179.970261 
	C301.210358,181.152832 304.373657,185.719528 306.022980,191.777420 
	C307.888123,188.358521 309.359131,185.662094 311.527130,181.688019 
	C321.943939,189.793671 332.078644,196.813477 341.208344,204.959610 
	C361.856018,223.382858 376.252563,246.200623 386.063477,272.755005 
	C387.868469,278.623657 389.673492,284.492340 391.478516,290.360992 
	C391.916321,290.243774 392.354126,290.126556 392.791931,290.009338 
	C391.160767,284.010376 389.529572,278.011383 387.806427,271.268768 
M220.933716,288.869904 
	C221.091141,289.047852 221.248581,289.225830 221.138245,290.041718 
	C213.891525,302.341736 208.799545,315.455048 206.337402,329.541809 
	C205.353577,335.170654 202.348923,339.193817 197.335663,341.908020 
	C196.137177,342.556885 195.316803,343.904175 193.453033,345.827515 
	C196.274155,345.827515 197.607849,345.827515 198.869965,345.827515 
	C198.393417,348.692902 197.966141,351.262054 197.538864,353.831177 
	C198.371933,354.353363 199.205002,354.875580 200.038071,355.397766 
	C200.755936,353.783112 201.473801,352.168457 202.711243,349.385162 
	C202.947388,352.516205 203.065201,354.078247 203.220108,356.132080 
	C209.442627,355.620392 206.407867,350.048523 208.719376,347.283966 
	C209.776978,350.308929 210.773239,353.158417 211.769485,356.007935 
	C212.556503,355.849121 213.343521,355.690277 214.130539,355.531464 
	C213.862869,352.090698 213.595200,348.649902 213.292068,344.753143 
	C214.763474,345.220093 215.932449,345.368896 216.849731,345.929535 
	C218.628998,347.016968 220.544876,349.382629 222.161713,346.355225 
	C223.644180,343.579437 221.453506,342.034332 218.963013,341.393616 
	C214.762207,340.312897 214.043991,337.350891 215.578217,334.099243 
	C218.687790,327.508972 222.262711,321.136902 225.725662,314.717957 
	C225.950821,314.300598 226.854797,314.249512 228.357254,313.683746 
	C230.096985,326.227325 226.673584,337.718536 224.323181,349.207397 
	C230.942947,351.975708 231.804321,353.514191 229.418747,360.285950 
	C227.497070,365.740875 224.988235,370.988953 222.643082,376.558777 
	C223.104691,376.934937 223.691238,377.509613 224.366150,377.948334 
	C232.931686,383.516479 232.953781,383.520569 228.520111,392.732300 
	C227.366806,395.128479 225.900681,397.381897 224.851273,399.818481 
	C223.006149,404.102631 221.371567,408.477417 219.385681,413.476624 
	C168.930695,415.943329 119.369247,426.959839 71.150261,447.516174 
	C99.734009,443.927002 127.338264,439.592010 155.110138,437.216827 
	C183.109909,434.822174 211.275665,433.367798 239.369492,433.355804 
	C267.296295,433.343903 295.296387,434.790222 323.131042,437.161499 
	C350.870239,439.524628 378.444000,443.830200 406.447662,447.328796 
	C405.642944,446.802399 405.148163,446.356232 404.568085,446.116791 
	C357.715057,426.779572 309.019562,415.776031 258.345337,413.411713 
	C252.656143,413.146301 247.023422,411.213898 241.415573,409.845306 
	C238.378113,409.104004 237.411499,407.013062 238.903687,404.138885 
	C241.116699,399.876373 243.138458,395.480469 245.728653,391.454681 
	C251.872253,381.906006 251.986420,381.983459 261.754150,387.104248 
	C261.986938,387.226318 262.361725,387.077484 263.057373,387.026764 
	C263.549774,385.245941 264.338409,383.380463 264.551483,381.451385 
	C265.445831,373.355255 266.052399,365.225861 267.050415,357.143951 
	C267.250122,355.526642 268.852081,352.668732 269.551971,352.744446 
	C277.016266,353.551788 275.288422,348.469849 274.717285,344.682159 
	C272.381592,329.192596 267.811035,314.575104 257.978241,301.926361 
	C256.736389,300.328857 256.643707,296.749054 257.542419,294.784943 
	C260.024719,289.359985 263.219910,284.247711 266.303711,279.114227 
	C273.652985,266.880219 277.844391,253.769974 278.277740,239.413803 
	C278.348419,237.071426 280.078094,234.678482 281.374146,232.507858 
	C282.293213,230.968704 284.113525,229.934998 284.902374,228.360474 
	C285.620636,226.926773 285.490997,225.068237 285.735138,223.396957 
	C284.388397,224.194366 283.074158,225.054459 281.686737,225.773438 
	C279.923157,226.687363 277.335846,228.657059 276.464783,228.088028 
	C274.740906,226.961853 273.434174,224.529007 272.926270,222.404190 
	C272.451874,220.419754 273.425812,218.130173 273.376678,215.983734 
	C273.355591,215.063049 272.359039,214.164688 271.805695,213.256180 
	C271.095154,214.005432 270.274506,214.681030 269.708649,215.527023 
	C269.249176,216.214005 269.095428,217.105469 268.745056,218.075119 
	C267.834869,216.528702 267.127411,215.326736 265.688629,212.882248 
	C264.656128,215.861786 264.042023,217.633911 263.508240,219.174271 
	C262.592987,218.749283 261.614441,218.294907 260.676422,217.859360 
	C257.935303,222.174957 257.010498,226.265503 260.320526,230.337738 
	C261.559418,231.861954 262.789307,233.743820 264.459137,234.499222 
	C268.810822,236.467880 269.087860,239.405273 267.063599,242.987732 
	C263.384949,249.498077 259.927002,256.191650 255.613724,262.266876 
	C251.991547,267.368683 247.503281,271.930908 242.947617,276.257294 
	C241.144012,277.970154 238.122269,278.400299 235.655136,279.414459 
	C235.451492,278.921844 235.247849,278.429199 235.044205,277.936584 
	C235.626831,277.413971 236.128510,276.726929 236.804596,276.394135 
	C243.578491,273.059265 245.854782,266.876953 246.817856,260.095917 
	C247.841721,252.886673 242.084808,246.870880 235.842636,249.063034 
	C235.616714,239.243881 230.705017,231.701797 223.879959,224.924576 
	C226.607925,225.278595 228.747330,226.037796 230.678726,227.156189 
	C233.449097,228.760406 235.218140,228.036880 236.270370,225.955811 
	C234.126953,224.800980 232.184174,223.812180 230.296417,222.727600 
	C219.057190,216.270416 207.097321,212.108765 194.090546,214.720200 
	C174.885544,218.576096 163.922333,231.420319 159.274933,249.820465 
	C153.260651,273.632446 171.070724,296.100891 195.503708,296.035248 
	C204.626144,296.010742 212.549789,292.176239 220.933716,288.869904 
M358.407257,189.082062 
	C421.135986,253.570374 433.573761,327.886078 402.297638,411.075195 
	C403.687134,409.403564 405.239044,407.607910 406.286743,405.554962 
	C425.817444,367.285583 431.639893,326.918579 423.585724,284.804749 
	C416.521484,247.867020 399.448273,215.934036 372.983582,189.153183 
	C370.439728,186.578979 370.750977,184.163330 372.693390,182.235626 
	C375.160461,179.787231 378.344116,178.060944 381.710022,175.675095 
	C375.343628,174.748627 371.426941,170.878098 370.036224,164.301254 
	C368.826324,166.124832 368.260315,167.622925 367.552490,169.050705 
	C364.566071,175.074493 359.211884,176.330811 353.938568,172.288681 
	C339.841339,161.482788 324.512421,152.844040 307.950867,146.447083 
	C283.274231,136.915680 257.736664,132.695679 231.179398,134.550186 
	C279.773987,137.762405 322.218994,155.276276 358.407257,189.082062 
M84.075508,351.097992 
	C80.271591,308.922241 90.019310,270.229340 113.836586,235.137527 
	C114.388794,234.323853 114.586891,233.269836 115.198235,231.684723 
	C98.888138,241.665573 79.035912,281.727325 75.399597,311.294861 
	C71.168938,345.695007 78.521408,377.407715 97.838150,406.249329 
	C95.538048,397.341888 92.167099,388.719971 89.817505,379.828156 
	C87.404114,370.694946 85.988365,361.298126 84.075508,351.097992 
M392.284821,151.267242 
	C393.064758,152.942429 393.844696,154.617630 394.624634,156.292831 
	C396.464691,149.726471 401.008789,146.695435 406.991333,144.680832 
	C400.346924,143.303772 396.830627,139.096054 394.812622,133.012497 
	C392.897614,139.469269 389.105804,143.213913 382.880310,144.176773 
	C386.151276,146.498550 389.055786,148.560196 392.284821,151.267242 
M365.075134,113.557068 
	C362.674347,114.901497 360.273560,116.245926 356.630676,118.285919 
	C364.185272,119.028954 367.323486,123.666542 369.567749,129.576691 
	C371.136719,123.090744 375.237518,119.581894 381.417969,117.619865 
	C374.847900,116.056152 371.306030,111.888390 369.761780,105.311386 
	C368.098358,108.410950 366.852936,110.731667 365.075134,113.557068 
M348.951477,150.457901 
	C351.559113,148.807266 354.166748,147.156631 357.298981,145.173904 
	C350.693787,144.004242 347.241333,139.783569 345.082916,133.726990 
	C343.715515,140.491455 339.305176,143.619965 333.348145,145.657806 
	C339.790222,147.335495 343.487061,151.443863 345.022552,158.369720 
	C346.514160,155.194534 347.495117,153.106369 348.951477,150.457901 
M327.235199,208.134521 
	C324.254425,205.157349 321.273651,202.180191 318.170288,199.080582 
	C317.330566,204.568329 313.336731,208.103027 307.096344,210.093033 
	C313.813141,211.537491 317.026947,216.006165 319.168640,221.926285 
	C320.633820,215.351120 324.684723,211.894104 331.776733,210.344650 
	C329.555756,209.272064 328.708893,208.863083 327.235199,208.134521 
z"/>
<path fill="#FDFCFE" opacity="1.000000" stroke="none" 
	d="
M220.477859,288.321930 
	C212.549789,292.176239 204.626144,296.010742 195.503708,296.035248 
	C171.070724,296.100891 153.260651,273.632446 159.274933,249.820465 
	C163.922333,231.420319 174.885544,218.576096 194.090546,214.720200 
	C207.097321,212.108765 219.057190,216.270416 230.296417,222.727600 
	C232.184174,223.812180 234.126953,224.800980 236.270370,225.955811 
	C235.218140,228.036880 233.449097,228.760406 230.678726,227.156189 
	C228.747330,226.037796 226.607925,225.278595 223.879959,224.924576 
	C230.705017,231.701797 235.616714,239.243881 235.842636,249.063034 
	C242.084808,246.870880 247.841721,252.886673 246.817856,260.095917 
	C245.854782,266.876953 243.578491,273.059265 236.804596,276.394135 
	C236.128510,276.726929 235.626831,277.413971 235.044205,277.936584 
	C235.247849,278.429199 235.451492,278.921844 235.655136,279.414459 
	C238.122269,278.400299 241.144012,277.970154 242.947617,276.257294 
	C247.503281,271.930908 251.991547,267.368683 255.613724,262.266876 
	C259.927002,256.191650 263.384949,249.498077 267.063599,242.987732 
	C269.087860,239.405273 268.810822,236.467880 264.459137,234.499222 
	C262.789307,233.743820 261.559418,231.861954 260.320526,230.337738 
	C257.010498,226.265503 257.935303,222.174957 260.676422,217.859360 
	C261.614441,218.294907 262.592987,218.749283 263.508240,219.174271 
	C264.042023,217.633911 264.656128,215.861786 265.688629,212.882248 
	C267.127411,215.326736 267.834869,216.528702 268.745056,218.075119 
	C269.095428,217.105469 269.249176,216.214005 269.708649,215.527023 
	C270.274506,214.681030 271.095154,214.005432 271.805695,213.256195 
	C272.359039,214.164688 273.355591,215.063049 273.376678,215.983734 
	C273.425812,218.130173 272.451874,220.419754 272.926270,222.404190 
	C273.434174,224.529007 274.740906,226.961853 276.464783,228.088028 
	C277.335846,228.657059 279.923157,226.687363 281.686737,225.773438 
	C283.074158,225.054459 284.388397,224.194366 285.735107,223.396973 
	C285.490997,225.068237 285.620636,226.926773 284.902374,228.360474 
	C284.113525,229.934998 282.293213,230.968704 281.374146,232.507858 
	C280.078094,234.678482 278.348419,237.071426 278.277740,239.413803 
	C277.844391,253.769974 273.652985,266.880219 266.303711,279.114227 
	C263.219910,284.247711 260.024719,289.359985 257.542419,294.784943 
	C256.643707,296.749054 256.736389,300.328857 257.978241,301.926361 
	C267.811035,314.575104 272.381592,329.192596 274.717285,344.682159 
	C275.288422,348.469849 277.016266,353.551788 269.551971,352.744446 
	C268.852081,352.668732 267.250122,355.526642 267.050415,357.143951 
	C266.052399,365.225861 265.445831,373.355255 264.551483,381.451385 
	C264.338409,383.380463 263.549774,385.245941 263.057373,387.026764 
	C262.361725,387.077484 261.986938,387.226318 261.754150,387.104248 
	C251.986420,381.983459 251.872253,381.906006 245.728653,391.454681 
	C243.138458,395.480469 241.116699,399.876373 238.903687,404.138885 
	C237.411499,407.013062 238.378113,409.104004 241.415573,409.845306 
	C247.023422,411.213898 252.656143,413.146301 258.345337,413.411713 
	C309.019562,415.776031 357.715057,426.779572 404.568085,446.116791 
	C405.148163,446.356232 405.642944,446.802399 406.447662,447.328796 
	C378.444000,443.830200 350.870239,439.524628 323.131042,437.161499 
	C295.296387,434.790222 267.296295,433.343903 239.369492,433.355804 
	C211.275665,433.367798 183.109909,434.822174 155.110138,437.216827 
	C127.338264,439.592010 99.734009,443.927002 71.150261,447.516174 
	C119.369247,426.959839 168.930695,415.943329 219.385681,413.476624 
	C221.371567,408.477417 223.006149,404.102631 224.851273,399.818481 
	C225.900681,397.381897 227.366806,395.128479 228.520111,392.732300 
	C232.953781,383.520569 232.931686,383.516479 224.366150,377.948334 
	C223.691238,377.509613 223.104691,376.934937 222.643082,376.558777 
	C224.988235,370.988953 227.497070,365.740875 229.418747,360.285950 
	C231.804321,353.514191 230.942947,351.975708 224.323181,349.207397 
	C226.673584,337.718536 230.096985,326.227325 228.357254,313.683746 
	C226.854797,314.249512 225.950821,314.300598 225.725662,314.717957 
	C222.262711,321.136902 218.687790,327.508972 215.578217,334.099243 
	C214.043991,337.350891 214.762207,340.312897 218.963013,341.393616 
	C221.453506,342.034332 223.644180,343.579437 222.161713,346.355225 
	C220.544876,349.382629 218.628998,347.016968 216.849731,345.929535 
	C215.932449,345.368896 214.763474,345.220093 213.292068,344.753143 
	C213.595200,348.649902 213.862869,352.090698 214.130539,355.531464 
	C213.343521,355.690277 212.556503,355.849121 211.769485,356.007935 
	C210.773239,353.158417 209.776978,350.308929 208.719376,347.283966 
	C206.407867,350.048523 209.442627,355.620392 203.220108,356.132080 
	C203.065201,354.078247 202.947388,352.516205 202.711243,349.385162 
	C201.473801,352.168457 200.755936,353.783112 200.038071,355.397766 
	C199.205002,354.875580 198.371933,354.353363 197.538864,353.831177 
	C197.966141,351.262054 198.393417,348.692902 198.869965,345.827515 
	C197.607849,345.827515 196.274155,345.827515 193.453033,345.827515 
	C195.316803,343.904175 196.137177,342.556885 197.335663,341.908020 
	C202.348923,339.193817 205.353577,335.170654 206.337402,329.541809 
	C208.799545,315.455048 213.891525,302.341736 221.476776,289.524048 
	C221.369492,288.778229 220.923676,288.550079 220.477859,288.321930 
z"/>
<path fill="#FAF7FD" opacity="1.000000" stroke="none" 
	d="
M386.071838,271.979828 
	C376.252563,246.200623 361.856018,223.382858 341.208344,204.959610 
	C332.078644,196.813477 321.943939,189.793671 311.527130,181.688019 
	C309.359131,185.662094 307.888123,188.358521 306.022980,191.777420 
	C304.373657,185.719528 301.210358,181.152832 293.876617,179.970261 
	C296.101654,178.613647 297.489044,177.767746 298.991150,176.851898 
	C247.161011,149.992966 167.845795,151.803314 111.805496,204.743759 
	C57.838329,255.725784 45.280304,318.210541 66.028374,388.505585 
	C45.073082,345.454987 43.651386,273.648010 88.441956,216.172913 
	C132.369598,159.805130 220.244308,127.409180 304.366150,170.361786 
	C305.002594,169.455383 305.650940,168.532043 306.349487,167.537216 
	C309.974457,177.240128 319.890167,179.398453 326.901306,184.837769 
	C356.094635,207.486328 376.484375,236.130295 387.547943,271.637146 
	C386.883575,271.996979 386.477722,271.988403 386.071838,271.979828 
z"/>
<path fill="#FAF7FD" opacity="1.000000" stroke="none" 
	d="
M358.154785,188.832443 
	C322.218994,155.276276 279.773987,137.762405 231.179398,134.550186 
	C257.736664,132.695679 283.274231,136.915680 307.950867,146.447083 
	C324.512421,152.844040 339.841339,161.482788 353.938568,172.288681 
	C359.211884,176.330811 364.566071,175.074493 367.552490,169.050705 
	C368.260315,167.622925 368.826324,166.124832 370.036224,164.301254 
	C371.426941,170.878098 375.343628,174.748627 381.710022,175.675095 
	C378.344116,178.060944 375.160461,179.787231 372.693390,182.235626 
	C370.750977,184.163330 370.439728,186.578979 372.983582,189.153183 
	C399.448273,215.934036 416.521484,247.867020 423.585724,284.804749 
	C431.639893,326.918579 425.817444,367.285583 406.286743,405.554962 
	C405.239044,407.607910 403.687134,409.403564 402.297638,411.075195 
	C433.573761,327.886078 421.135986,253.570374 358.154785,188.832443 
z"/>
<path fill="#FAF6FD" opacity="1.000000" stroke="none" 
	d="
M84.105766,351.557312 
	C85.988365,361.298126 87.404114,370.694946 89.817505,379.828156 
	C92.167099,388.719971 95.538048,397.341888 97.838150,406.249329 
	C78.521408,377.407715 71.168938,345.695007 75.399597,311.294861 
	C79.035912,281.727325 98.888138,241.665573 115.198235,231.684723 
	C114.586891,233.269836 114.388794,234.323853 113.836586,235.137527 
	C90.019310,270.229340 80.271591,308.922241 84.105766,351.557312 
z"/>
<path fill="#FCFAFE" opacity="1.000000" stroke="none" 
	d="
M448.755371,55.870155 
	C443.941376,74.264809 439.127380,92.659470 434.165253,111.620216 
	C426.427399,106.978157 419.361969,102.739502 411.825958,98.218536 
	C409.050171,101.875206 406.423523,105.335449 403.796844,108.795692 
	C404.287170,102.067657 405.481689,96.144127 410.709930,91.257103 
	C419.801575,82.758858 428.183960,73.501839 437.367188,64.178726 
	C441.498871,61.153065 445.127136,58.511612 448.755371,55.870155 
z"/>
<path fill="#F9F6FD" opacity="1.000000" stroke="none" 
	d="
M448.890930,55.604805 
	C445.127136,58.511612 441.498871,61.153065 437.566284,63.898804 
	C435.781921,64.379814 433.963989,64.331825 432.874084,65.198952 
	C421.923920,73.910759 411.060730,82.733299 400.257080,91.626717 
	C398.161316,93.351921 396.376526,94.104477 393.587738,92.985405 
	C388.724030,91.033730 383.651642,89.602097 377.636780,87.611687 
	C402.060730,75.274406 425.467285,63.451046 449.788696,51.165562 
	C449.400360,53.292061 449.213440,54.315758 448.890930,55.604805 
z"/>
<path fill="#F8F4FD" opacity="1.000000" stroke="none" 
	d="
M392.122559,150.944550 
	C389.055786,148.560196 386.151276,146.498550 382.880310,144.176773 
	C389.105804,143.213913 392.897614,139.469269 394.812622,133.012497 
	C396.830627,139.096054 400.346924,143.303772 406.991333,144.680832 
	C401.008789,146.695435 396.464691,149.726471 394.624634,156.292831 
	C393.844696,154.617630 393.064758,152.942429 392.122559,150.944550 
z"/>
<path fill="#F7F3FC" opacity="1.000000" stroke="none" 
	d="
M365.341309,113.304718 
	C366.852936,110.731667 368.098358,108.410950 369.761780,105.311386 
	C371.306030,111.888390 374.847900,116.056152 381.417969,117.619865 
	C375.237518,119.581894 371.136719,123.090744 369.567749,129.576691 
	C367.323486,123.666542 364.185272,119.028954 356.630676,118.285919 
	C360.273560,116.245926 362.674347,114.901497 365.341309,113.304718 
z"/>
<path fill="#F8F4FC" opacity="1.000000" stroke="none" 
	d="
M348.713806,150.738037 
	C347.495117,153.106369 346.514160,155.194534 345.022552,158.369720 
	C343.487061,151.443863 339.790222,147.335495 333.348145,145.657806 
	C339.305176,143.619965 343.715515,140.491455 345.082916,133.726990 
	C347.241333,139.783569 350.693787,144.004242 357.298981,145.173904 
	C354.166748,147.156631 351.559113,148.807266 348.713806,150.738037 
z"/>
<path fill="#F7F2FC" opacity="1.000000" stroke="none" 
	d="
M327.548615,208.294312 
	C328.708893,208.863083 329.555756,209.272064 331.776733,210.344650 
	C324.684723,211.894104 320.633820,215.351120 319.168640,221.926285 
	C317.026947,216.006165 313.813141,211.537491 307.096344,210.093033 
	C313.336731,208.103027 317.330566,204.568329 318.170288,199.080582 
	C321.273651,202.180191 324.254425,205.157349 327.548615,208.294312 
z"/>
<path fill="#E3D3F5" opacity="1.000000" stroke="none" 
	d="
M386.067657,272.367432 
	C386.477722,271.988403 386.883575,271.996979 387.593933,272.008972 
	C389.529572,278.011383 391.160767,284.010376 392.791931,290.009338 
	C392.354126,290.126556 391.916321,290.243774 391.478516,290.360992 
	C389.673492,284.492340 387.868469,278.623657 386.067657,272.367432 
z"/>
<path fill="#8039D1" opacity="1.000000" stroke="none" 
	d="
M220.705780,288.595917 
	C220.923676,288.550079 221.369492,288.778229 221.610672,289.205078 
	C221.248581,289.225830 221.091141,289.047852 220.705780,288.595917 
z"/>
</svg>