<svg version="1.1" id="Layer_1" xmlns="http://www.w3.org/2000/svg" xmlns:xlink="http://www.w3.org/1999/xlink" x="0px" y="0px"
	 width="100%" viewBox="0 0 500 500" enable-background="new 0 0 500 500" xml:space="preserve">
<path fill="#8039D1" opacity="1.000000" stroke="none" 
	d="
M326.000000,501.000000 
	C217.333359,501.000000 109.166718,501.000000 1.000058,501.000000 
	C1.000039,334.333405 1.000039,167.666794 1.000019,1.000148 
	C167.666565,1.000098 334.333130,1.000098 500.999756,1.000049 
	C500.999847,167.666519 500.999847,334.333038 500.999939,500.999786 
	C442.833344,501.000000 384.666656,501.000000 326.000000,501.000000 
M340.842316,232.193344 
	C340.842316,232.193344 340.771454,232.216522 340.871490,232.942062 
	C342.975800,237.465256 345.080078,241.988464 347.184357,246.511658 
	C347.687927,246.300903 348.191498,246.090149 348.695068,245.879395 
	C346.690857,241.185455 344.686646,236.491516 342.411896,231.100235 
	C331.754150,209.829346 316.750427,192.478058 296.436920,179.845779 
	C294.169647,178.435837 292.313782,176.364349 291.252838,175.449570 
	C288.698486,174.748566 286.967285,174.539612 285.478546,173.825287 
	C259.986938,161.593689 233.366684,158.131577 205.735611,164.070160 
	C141.738602,177.824677 95.529877,239.967789 111.730232,314.037689 
	C113.195976,318.678162 114.661728,323.318665 116.253830,328.683777 
	C118.605385,333.686096 120.956947,338.688385 123.308502,343.690704 
	C123.436142,343.635437 123.563789,343.580200 123.691429,343.524933 
	C121.782150,338.352478 119.872864,333.180023 117.831856,327.228912 
	C116.510605,322.490387 115.189354,317.751862 113.842072,312.242798 
	C113.249054,310.027649 112.158875,307.814850 112.148514,305.596985 
	C112.101913,295.627289 111.422012,285.537415 112.663811,275.704742 
	C120.806595,211.229752 173.811249,166.158661 238.864655,168.184006 
	C254.933578,168.684280 270.294525,172.630432 285.103394,179.784348 
	C284.125183,180.815674 283.420868,181.558258 283.326935,181.657303 
	C286.049805,184.510422 288.542480,187.122314 291.050201,189.750000 
	C291.237152,189.350845 291.579926,188.423630 292.083862,187.594360 
	C292.663391,186.640686 293.385437,185.773636 294.304016,184.514832 
	C296.330780,185.756134 298.161041,186.830994 299.945496,187.977112 
	C316.963135,198.907059 329.782501,213.751770 340.066315,231.537399 
	C340.319519,231.780289 340.572723,232.023178 340.842316,232.193344 
M388.324738,93.073143 
	C387.125397,93.665321 385.926056,94.257500 384.032074,94.947853 
	C371.010010,101.601532 357.987976,108.255203 344.325134,115.001045 
	C343.966431,115.463043 343.607697,115.925041 343.248993,116.387039 
	C343.832947,116.582443 344.416870,116.777847 345.610748,117.402214 
	C352.311188,121.162025 357.937408,120.478523 363.602386,114.695396 
	C368.397461,109.800293 374.356323,106.045242 380.209290,102.245590 
	C380.351288,102.393692 380.493256,102.541786 380.212250,103.198395 
	C374.764008,108.990067 369.140472,114.630981 363.960205,120.653191 
	C362.086487,122.831383 361.274536,125.922882 359.978088,128.597626 
	C360.548462,128.978745 361.118835,129.359863 361.689178,129.740982 
	C363.182098,127.835640 364.674988,125.930298 366.317047,123.834602 
	C371.580292,126.985779 376.639191,130.014618 382.301544,133.404755 
	C386.074188,119.036125 389.680939,105.299355 393.287689,91.562584 
	C392.907440,91.392906 392.527161,91.223221 392.146912,91.053543 
	C391.099792,91.764175 390.052643,92.474815 388.324738,93.073143 
M247.840698,151.095520 
	C249.651077,151.381256 251.459457,151.680374 253.272125,151.950775 
	C340.293945,164.931671 394.172241,258.120361 361.953979,339.909210 
	C361.593262,340.824921 361.450195,341.826324 361.205536,342.787750 
	C362.578094,342.432831 363.215698,341.767303 363.616211,340.981018 
	C371.401337,325.697540 375.918152,309.434509 376.877350,292.369568 
	C379.095428,252.907272 366.598297,218.674423 339.407776,189.889191 
	C336.423004,186.729340 336.685242,184.392670 340.395416,181.913712 
	C341.583191,181.120117 342.906769,180.529770 344.168213,179.846451 
	C343.240540,180.622131 342.312866,181.397827 341.385223,182.173508 
	C338.956024,179.502335 336.526855,176.831177 334.542816,174.649475 
	C331.074951,180.099838 329.320404,180.425415 321.626770,174.752563 
	C299.583313,158.499069 274.630768,150.090027 246.235413,149.217728 
	C241.915558,149.217728 237.595703,149.217728 233.275833,149.217728 
	C233.275558,149.561096 233.275299,149.904465 233.275024,150.247849 
	C237.857864,150.481049 242.440689,150.714264 247.840698,151.095520 
M239.042587,214.787674 
	C238.072769,214.210175 237.102356,213.633667 236.133209,213.055054 
	C212.470230,198.927338 191.085678,210.253174 185.529205,231.601578 
	C181.303970,247.835297 191.252228,263.148560 207.542633,265.533203 
	C215.152222,266.647125 221.875687,263.622253 228.901489,260.883362 
	C229.034851,261.021393 229.168198,261.159393 229.131882,261.980774 
	C225.830780,270.650482 221.987976,279.165131 219.443848,288.051544 
	C218.049881,292.920563 216.156723,296.573761 211.792953,298.982422 
	C211.310349,299.248810 211.059998,299.935974 210.421646,300.813141 
	C211.819489,301.103271 212.786240,301.303925 213.653473,301.483917 
	C213.329285,303.284454 213.042831,304.875397 212.646942,307.074158 
	C215.686539,306.282471 219.656570,312.162506 220.251236,305.121582 
	C221.421997,306.229034 222.544250,307.290588 223.666504,308.352142 
	C224.062500,308.122955 224.458496,307.893768 224.854492,307.664581 
	C224.588226,305.524048 224.321945,303.383514 224.021484,300.968201 
	C225.017944,301.089569 225.640686,301.181396 226.266586,301.238403 
	C227.642181,301.363678 229.019379,301.471344 230.395920,301.586212 
	C229.540680,300.400024 228.720673,299.186249 227.819992,298.035614 
	C226.969208,296.948730 225.129013,295.770325 225.280273,294.903778 
	C226.368408,288.670197 229.911224,283.687714 233.964462,278.853424 
	C234.872757,280.842560 235.260757,282.611664 235.036819,284.299591 
	C234.315567,289.735474 233.293427,295.131378 232.564072,300.566406 
	C232.391479,301.852509 232.591812,304.227600 233.161316,304.409546 
	C237.634293,305.838837 236.357315,309.044922 235.463303,311.763580 
	C234.180664,315.664032 232.380585,319.394287 230.825836,323.138367 
	C238.048843,328.830322 237.986374,328.798859 233.754166,337.198425 
	C231.764450,341.147369 230.068039,345.244110 228.004959,349.788788 
	C192.535492,351.635315 157.525467,359.199615 124.089355,373.907928 
	C202.825012,360.388000 281.530151,360.307404 360.287872,373.868774 
	C359.971863,373.078705 359.659607,372.666168 359.248962,372.505951 
	C353.988068,370.453613 348.771088,368.268005 343.432068,366.440155 
	C314.748688,356.620270 285.286743,350.986603 254.957062,349.682037 
	C250.700363,349.498962 246.533905,347.217804 242.325668,345.907837 
	C243.790985,342.155487 245.251923,338.401367 246.729858,334.653992 
	C246.849518,334.350555 247.084930,334.092560 247.267670,333.814209 
	C251.683884,327.087433 251.681366,327.092255 258.620209,330.801239 
	C258.833832,330.915436 259.226440,330.694763 260.281860,330.474396 
	C260.933044,324.801971 261.940643,318.905304 262.178101,312.977783 
	C262.345734,308.793945 262.519653,305.311035 268.245239,305.557220 
	C267.498047,294.001282 265.540619,283.152008 258.612671,274.179016 
	C254.507889,268.862549 254.829819,264.735168 258.335266,259.513824 
	C264.991638,249.599197 269.831482,238.933701 270.635406,226.691711 
	C270.810974,224.017868 272.720764,221.439224 273.920685,218.858017 
	C274.698608,217.184631 275.637726,215.586182 276.341461,214.261292 
	C272.973511,214.995255 270.346375,215.567764 267.719238,216.140289 
	C267.289398,212.982697 266.859558,209.825104 266.363922,206.184280 
	C265.590424,206.639572 264.961212,207.337860 264.378845,207.300797 
	C259.803375,207.009521 256.557037,209.973724 256.520050,213.513474 
	C256.489960,216.395355 260.009460,219.229675 261.648743,222.251221 
	C262.408661,223.651886 263.299072,226.010391 262.666626,226.975739 
	C257.412933,234.994781 251.943146,242.883591 246.216095,250.571442 
	C245.098709,252.071396 242.580643,252.527878 240.708603,253.465652 
	C240.459595,253.112411 240.210602,252.759155 239.961594,252.405914 
	C245.890854,248.385559 249.337357,243.135712 247.395889,235.929062 
	C246.532333,232.723618 244.387695,230.106552 241.895401,230.901718 
	C238.280106,225.229080 235.065247,220.184738 232.182037,214.785553 
	C232.182037,214.785553 232.503632,214.421539 233.177582,214.695877 
	C234.470596,215.315094 235.735260,216.308472 237.067505,216.409348 
	C237.832962,216.467300 238.707947,215.078705 239.863953,214.622620 
	C240.008545,214.602112 240.153137,214.581589 240.297729,214.561081 
	C240.045898,214.488251 239.794083,214.415405 239.042587,214.787674 
M134.545547,322.683746 
	C126.017799,287.777527 132.051895,255.087570 150.255661,224.249817 
	C137.252548,232.104141 124.153336,264.674194 124.211121,288.649048 
	C124.259132,308.572662 128.927322,327.293945 140.906311,344.264557 
	C138.764084,336.968994 136.782669,330.221069 134.545547,322.683746 
M349.450623,159.065781 
	C351.075378,161.023331 352.700165,162.980881 354.324921,164.938431 
	C353.500702,164.092163 352.676483,163.245895 351.852234,162.399628 
	C354.506561,159.950775 357.160889,157.501907 359.815186,155.053055 
	C359.422272,156.813156 359.029327,158.573257 358.636414,160.333359 
	C356.490265,157.376465 354.344147,154.419571 352.197998,151.462692 
	C353.519440,151.521973 354.840881,151.581268 356.162323,151.640564 
	C353.580780,154.197845 350.999237,156.755142 348.417694,159.312439 
	C347.715546,158.694763 347.013367,158.077103 346.311188,157.459442 
	C347.143768,157.893921 347.976349,158.328400 349.450623,159.065781 
M317.454102,151.328140 
	C315.385834,153.616425 313.317566,155.904724 311.249298,158.193024 
	C311.767853,157.411469 312.286407,156.629913 312.804962,155.848358 
	C315.470123,158.454666 318.135284,161.060974 320.800446,163.667282 
	C319.005829,163.261536 317.211212,162.855789 315.416595,162.450043 
	C318.534393,160.222916 321.652191,157.995804 324.769989,155.768692 
	C323.521240,155.628281 321.410004,153.088898 319.212219,150.626770 
	C319.017517,150.408661 318.258667,150.694122 317.454102,151.328140 
M299.117767,196.444214 
	C296.962311,199.092148 294.806854,201.740082 292.651428,204.388016 
	C293.369659,203.317001 294.087921,202.246002 294.806152,201.174988 
	C297.225037,203.907730 299.643890,206.640472 302.062775,209.373215 
	C300.469299,209.411530 298.875824,209.449844 297.282379,209.488174 
	C300.130920,206.975311 302.979492,204.462448 305.828033,201.949585 
	C306.127167,202.685257 306.426270,203.420929 306.725372,204.156601 
	C304.333923,201.440948 301.942474,198.725281 299.117767,196.444214 
M334.635376,143.680313 
	C334.961548,144.319717 335.287750,144.959122 335.613922,145.598526 
	C335.007629,144.791672 334.401337,143.984818 333.795044,143.177963 
	C336.417511,140.667618 339.039948,138.157272 341.662415,135.646927 
	C341.599365,137.044647 341.536316,138.442368 341.473267,139.840088 
	C338.896698,137.313416 336.320129,134.786743 333.743561,132.260071 
	C335.137329,132.182632 336.531067,132.105209 337.924805,132.027771 
	C335.361664,134.687836 332.798523,137.347885 330.235352,140.007950 
	C329.611694,139.182526 328.988007,138.357101 328.364319,137.531677 
	C330.345398,139.375626 332.326477,141.219559 334.635376,143.680313 
M360.464142,344.451782 
	C360.464142,344.451782 360.473816,344.500000 360.464142,344.451782 
z"/>
<path fill="#FCFBFE" opacity="1.000000" stroke="none" 
	d="
M228.511093,260.460236 
	C221.875687,263.622253 215.152222,266.647125 207.542633,265.533203 
	C191.252228,263.148560 181.303970,247.835297 185.529205,231.601578 
	C191.085678,210.253174 212.470230,198.927338 236.133209,213.055054 
	C237.102356,213.633667 238.072769,214.210175 239.311966,214.599976 
	C239.581345,214.412262 239.533630,214.341293 239.533630,214.341278 
	C238.707947,215.078705 237.832962,216.467300 237.067505,216.409348 
	C235.735260,216.308472 234.470596,215.315094 232.645142,214.479843 
	C232.025253,214.556015 231.937820,214.848206 231.850372,215.140411 
	C235.065247,220.184738 238.280106,225.229080 241.895401,230.901718 
	C244.387695,230.106552 246.532333,232.723618 247.395889,235.929062 
	C249.337357,243.135712 245.890854,248.385559 239.961594,252.405914 
	C240.210602,252.759155 240.459595,253.112411 240.708603,253.465652 
	C242.580643,252.527878 245.098709,252.071396 246.216095,250.571442 
	C251.943146,242.883591 257.412933,234.994781 262.666626,226.975739 
	C263.299072,226.010391 262.408661,223.651886 261.648743,222.251221 
	C260.009460,219.229675 256.489960,216.395355 256.520050,213.513474 
	C256.557037,209.973724 259.803375,207.009521 264.378845,207.300797 
	C264.961212,207.337860 265.590424,206.639572 266.363922,206.184280 
	C266.859558,209.825104 267.289398,212.982697 267.719238,216.140289 
	C270.346375,215.567764 272.973511,214.995255 276.341461,214.261292 
	C275.637726,215.586182 274.698608,217.184631 273.920685,218.858017 
	C272.720764,221.439224 270.810974,224.017868 270.635406,226.691711 
	C269.831482,238.933701 264.991638,249.599197 258.335266,259.513824 
	C254.829819,264.735168 254.507889,268.862549 258.612671,274.179016 
	C265.540619,283.152008 267.498047,294.001282 268.245239,305.557220 
	C262.519653,305.311035 262.345734,308.793945 262.178101,312.977783 
	C261.940643,318.905304 260.933044,324.801971 260.281860,330.474396 
	C259.226440,330.694763 258.833832,330.915436 258.620209,330.801239 
	C251.681366,327.092255 251.683884,327.087433 247.267670,333.814209 
	C247.084930,334.092560 246.849518,334.350555 246.729858,334.653992 
	C245.251923,338.401367 243.790985,342.155487 242.325684,345.907837 
	C246.533905,347.217804 250.700363,349.498962 254.957062,349.682037 
	C285.286743,350.986603 314.748688,356.620270 343.432068,366.440155 
	C348.771088,368.268005 353.988068,370.453613 359.248962,372.505951 
	C359.659607,372.666168 359.971863,373.078705 360.287872,373.868774 
	C281.530151,360.307404 202.825012,360.388000 124.089355,373.907928 
	C157.525467,359.199615 192.535492,351.635315 228.004959,349.788788 
	C230.068039,345.244110 231.764450,341.147369 233.754166,337.198425 
	C237.986374,328.798859 238.048843,328.830322 230.825836,323.138367 
	C232.380585,319.394287 234.180664,315.664032 235.463303,311.763580 
	C236.357315,309.044922 237.634293,305.838837 233.161316,304.409546 
	C232.591812,304.227600 232.391479,301.852509 232.564072,300.566406 
	C233.293427,295.131378 234.315567,289.735474 235.036819,284.299591 
	C235.260757,282.611664 234.872757,280.842560 233.964462,278.853424 
	C229.911224,283.687714 226.368408,288.670197 225.280273,294.903778 
	C225.129013,295.770325 226.969208,296.948730 227.819992,298.035614 
	C228.720673,299.186249 229.540680,300.400024 230.395920,301.586212 
	C229.019379,301.471344 227.642181,301.363678 226.266586,301.238403 
	C225.640686,301.181396 225.017944,301.089569 224.021484,300.968201 
	C224.321945,303.383514 224.588226,305.524048 224.854492,307.664581 
	C224.458496,307.893768 224.062500,308.122955 223.666504,308.352142 
	C222.544250,307.290588 221.421997,306.229034 220.251236,305.121582 
	C219.656570,312.162506 215.686539,306.282471 212.646942,307.074158 
	C213.042831,304.875397 213.329285,303.284454 213.653473,301.483917 
	C212.786240,301.303925 211.819489,301.103271 210.421646,300.813141 
	C211.059998,299.935974 211.310349,299.248810 211.792953,298.982422 
	C216.156723,296.573761 218.049881,292.920563 219.443848,288.051544 
	C221.987976,279.165131 225.830780,270.650482 229.425888,261.480408 
	C229.316971,260.806732 228.914032,260.633484 228.511093,260.460236 
z"/>
<path fill="#F8F5FD" opacity="1.000000" stroke="none" 
	d="
M111.634392,313.230530 
	C95.529877,239.967789 141.738602,177.824677 205.735611,164.070160 
	C233.366684,158.131577 259.986938,161.593689 285.478546,173.825287 
	C286.967285,174.539612 288.698486,174.748566 291.252838,175.449570 
	C292.313782,176.364349 294.169647,178.435837 296.436920,179.845779 
	C316.750427,192.478058 331.754150,209.829346 342.070343,231.557831 
	C341.409668,232.082474 341.090576,232.149490 340.771454,232.216522 
	C340.771454,232.216522 340.842316,232.193344 340.740906,231.993713 
	C340.433197,231.529114 340.226868,231.264114 340.020508,230.999115 
	C329.782501,213.751770 316.963135,198.907059 299.945496,187.977112 
	C298.161041,186.830994 296.330780,185.756134 294.304016,184.514832 
	C293.385437,185.773636 292.663391,186.640686 292.083862,187.594360 
	C291.579926,188.423630 291.237152,189.350845 291.050201,189.750000 
	C288.542480,187.122314 286.049805,184.510422 283.326935,181.657303 
	C283.420868,181.558258 284.125183,180.815674 285.103394,179.784348 
	C270.294525,172.630432 254.933578,168.684280 238.864655,168.184006 
	C173.811249,166.158661 120.806595,211.229752 112.663811,275.704742 
	C111.422012,285.537415 112.101913,295.627289 112.148514,305.596985 
	C112.158875,307.814850 113.249054,310.027649 113.483589,312.672394 
	C112.628204,313.144836 112.131294,313.187683 111.634392,313.230530 
z"/>
<path fill="#F9F6FD" opacity="1.000000" stroke="none" 
	d="
M247.154053,149.483078 
	C274.630768,150.090027 299.583313,158.499069 321.626770,174.752563 
	C329.320404,180.425415 331.074951,180.099838 334.542816,174.649475 
	C336.526855,176.831177 338.956024,179.502335 341.385223,182.173508 
	C342.312866,181.397827 343.240540,180.622131 344.168213,179.846451 
	C342.906769,180.529770 341.583191,181.120117 340.395416,181.913712 
	C336.685242,184.392670 336.423004,186.729340 339.407776,189.889191 
	C366.598297,218.674423 379.095428,252.907272 376.877350,292.369568 
	C375.918152,309.434509 371.401337,325.697540 363.616211,340.981018 
	C363.215698,341.767303 362.578094,342.432831 361.205536,342.787750 
	C361.450195,341.826324 361.593262,340.824921 361.953979,339.909210 
	C394.172241,258.120361 340.293945,164.931671 253.272125,151.950775 
	C251.459457,151.680374 249.651077,151.381256 247.459595,150.777130 
	C247.172287,150.138824 247.197479,149.813599 247.154053,149.483078 
z"/>
<path fill="#FBF9FE" opacity="1.000000" stroke="none" 
	d="
M379.800110,101.785645 
	C374.356323,106.045242 368.397461,109.800293 363.602386,114.695396 
	C357.937408,120.478523 352.311188,121.162025 345.300781,116.843658 
	C344.982513,115.826355 344.974213,115.367615 344.965942,114.908875 
	C357.987976,108.255203 371.010010,101.601532 384.598816,95.065414 
	C387.718750,96.964622 388.325256,95.004135 389.005524,93.185455 
	C390.052643,92.474815 391.099792,91.764175 392.146912,91.053543 
	C392.527161,91.223221 392.907440,91.392906 393.287689,91.562584 
	C389.680939,105.299355 386.074188,119.036125 382.301544,133.404755 
	C376.639191,130.014618 371.580292,126.985779 366.317047,123.834602 
	C364.674988,125.930298 363.182098,127.835640 361.689178,129.740982 
	C361.118835,129.359863 360.548462,128.978745 359.978088,128.597626 
	C361.274536,125.922882 362.086487,122.831383 363.960205,120.653191 
	C369.140472,114.630981 374.764008,108.990067 380.618530,102.800720 
	C381.248688,102.146545 381.529358,101.995872 382.118042,101.848412 
	C382.629822,101.145782 382.890442,100.545746 383.151031,99.945709 
	C382.432159,100.178757 381.713257,100.411797 380.745544,100.781799 
	C380.264526,101.207726 380.032318,101.496681 379.800110,101.785645 
z"/>
<path fill="#F8F4FC" opacity="1.000000" stroke="none" 
	d="
M134.673401,323.078430 
	C136.782669,330.221069 138.764084,336.968994 140.906311,344.264557 
	C128.927322,327.293945 124.259132,308.572662 124.211121,288.649048 
	C124.153336,264.674194 137.252548,232.104141 150.255661,224.249817 
	C132.051895,255.087570 126.017799,287.777527 134.673401,323.078430 
z"/>
<path fill="#F4EDFB" opacity="1.000000" stroke="none" 
	d="
M349.129761,158.914337 
	C347.976349,158.328400 347.143768,157.893921 346.311188,157.459442 
	C347.013367,158.077103 347.715546,158.694763 348.417694,159.312439 
	C350.999237,156.755142 353.580780,154.197845 356.162323,151.640564 
	C354.840881,151.581268 353.519440,151.521973 352.197998,151.462692 
	C354.344147,154.419571 356.490265,157.376465 358.636414,160.333359 
	C359.029327,158.573257 359.422272,156.813156 359.815186,155.053055 
	C357.160889,157.501907 354.506561,159.950775 351.852234,162.399628 
	C352.676483,163.245895 353.500702,164.092163 354.324921,164.938431 
	C352.700165,162.980881 351.075378,161.023331 349.129761,158.914337 
z"/>
<path fill="#F5EFFB" opacity="1.000000" stroke="none" 
	d="
M317.607971,151.036926 
	C318.258667,150.694122 319.017517,150.408661 319.212219,150.626770 
	C321.410004,153.088898 323.521240,155.628281 324.769989,155.768692 
	C321.652191,157.995804 318.534393,160.222916 315.416595,162.450043 
	C317.211212,162.855789 319.005829,163.261536 320.800446,163.667282 
	C318.135284,161.060974 315.470123,158.454666 312.804962,155.848358 
	C312.286407,156.629913 311.767853,157.411469 311.249298,158.193024 
	C313.317566,155.904724 315.385834,153.616425 317.607971,151.036926 
z"/>
<path fill="#F5F0FB" opacity="1.000000" stroke="none" 
	d="
M299.334412,196.226913 
	C301.942474,198.725281 304.333923,201.440948 306.725372,204.156601 
	C306.426270,203.420929 306.127167,202.685257 305.828033,201.949585 
	C302.979492,204.462448 300.130920,206.975311 297.282379,209.488174 
	C298.875824,209.449844 300.469299,209.411530 302.062775,209.373215 
	C299.643890,206.640472 297.225037,203.907730 294.806152,201.174988 
	C294.087921,202.246002 293.369659,203.317001 292.651428,204.388016 
	C294.806854,201.740082 296.962311,199.092148 299.334412,196.226913 
z"/>
<path fill="#F5EFFB" opacity="1.000000" stroke="none" 
	d="
M334.471466,143.371902 
	C332.326477,141.219559 330.345398,139.375626 328.364319,137.531677 
	C328.988007,138.357101 329.611694,139.182526 330.235352,140.007950 
	C332.798523,137.347885 335.361664,134.687836 337.924805,132.027771 
	C336.531067,132.105209 335.137329,132.182632 333.743561,132.260071 
	C336.320129,134.786743 338.896698,137.313416 341.473267,139.840088 
	C341.536316,138.442368 341.599365,137.044647 341.662415,135.646927 
	C339.039948,138.157272 336.417511,140.667618 333.795044,143.177963 
	C334.401337,143.984818 335.007629,144.791672 335.613922,145.598526 
	C335.287750,144.959122 334.961548,144.319717 334.471466,143.371902 
z"/>
<path fill="#E0CEF4" opacity="1.000000" stroke="none" 
	d="
M111.682312,313.634094 
	C112.131294,313.187683 112.628204,313.144836 113.496605,313.057678 
	C115.189354,317.751862 116.510605,322.490387 117.591614,327.613800 
	C116.943413,327.985504 116.535446,327.972321 116.127480,327.959137 
	C114.661728,323.318665 113.195976,318.678162 111.682312,313.634094 
z"/>
<path fill="#E7DAF6" opacity="1.000000" stroke="none" 
	d="
M340.821472,232.579285 
	C341.090576,232.149490 341.409668,232.082474 342.205627,231.906494 
	C344.686646,236.491516 346.690857,241.185455 348.695068,245.879395 
	C348.191498,246.090149 347.687927,246.300903 347.184357,246.511658 
	C345.080078,241.988464 342.975800,237.465256 340.821472,232.579285 
z"/>
<path fill="#DAC6F2" opacity="1.000000" stroke="none" 
	d="
M116.190659,328.321472 
	C116.535446,327.972321 116.943413,327.985504 117.657486,328.003113 
	C119.872864,333.180023 121.782150,338.352478 123.691429,343.524933 
	C123.563789,343.580200 123.436142,343.635437 123.308502,343.690704 
	C120.956947,338.688385 118.605385,333.686096 116.190659,328.321472 
z"/>
<path fill="#D7C0F0" opacity="1.000000" stroke="none" 
	d="
M246.694733,149.350403 
	C247.197479,149.813599 247.172287,150.138824 247.050995,150.703094 
	C242.440689,150.714264 237.857864,150.481049 233.275024,150.247849 
	C233.275299,149.904465 233.275558,149.561096 233.275833,149.217728 
	C237.595703,149.217728 241.915558,149.217728 246.694733,149.350403 
z"/>
<path fill="#F8F5FD" opacity="1.000000" stroke="none" 
	d="
M388.665131,93.129303 
	C388.325256,95.004135 387.718750,96.964622 384.946167,95.016327 
	C385.926056,94.257500 387.125397,93.665321 388.665131,93.129303 
z"/>
<path fill="#F8F5FD" opacity="1.000000" stroke="none" 
	d="
M344.645538,114.954956 
	C344.974213,115.367615 344.982513,115.826355 344.995819,116.629166 
	C344.416870,116.777847 343.832947,116.582443 343.248993,116.387039 
	C343.607697,115.925041 343.966431,115.463043 344.645538,114.954956 
z"/>
<path fill="#FCFBFE" opacity="1.000000" stroke="none" 
	d="
M239.561798,214.377411 
	C239.794083,214.415405 240.045898,214.488251 240.297729,214.561081 
	C240.153137,214.581589 240.008545,214.602112 239.698792,214.481964 
	C239.533630,214.341293 239.581345,214.412262 239.561798,214.377411 
z"/>
<path fill="#E7DAF6" opacity="1.000000" stroke="none" 
	d="
M340.043396,231.268250 
	C340.226868,231.264114 340.433197,231.529114 340.732727,232.030090 
	C340.572723,232.023178 340.319519,231.780289 340.043396,231.268250 
z"/>
<path fill="#F9F6FD" opacity="1.000000" stroke="none" 
	d="
M360.468994,344.475891 
	C360.473816,344.500000 360.464142,344.451782 360.468994,344.475891 
z"/>
<path fill="#8039D1" opacity="1.000000" stroke="none" 
	d="
M232.016205,214.962982 
	C231.937820,214.848206 232.025253,214.556015 232.308167,214.342682 
	C232.503632,214.421539 232.182037,214.785553 232.016205,214.962982 
z"/>
<path fill="#8039D1" opacity="1.000000" stroke="none" 
	d="
M228.706299,260.671814 
	C228.914032,260.633484 229.316971,260.806732 229.510712,261.138702 
	C229.168198,261.159393 229.034851,261.021393 228.706299,260.671814 
z"/>
<path fill="#F8F5FD" opacity="1.000000" stroke="none" 
	d="
M380.994385,100.644836 
	C381.713257,100.411797 382.432159,100.178757 383.151031,99.945709 
	C382.890442,100.545746 382.629822,101.145782 382.087128,101.570847 
	C381.534821,101.145523 381.264618,100.895172 380.994385,100.644836 
z"/>
<path fill="#8039D1" opacity="1.000000" stroke="none" 
	d="
M380.745544,100.781799 
	C381.264618,100.895172 381.534821,101.145523 381.835968,101.673447 
	C381.529358,101.995872 381.248688,102.146545 380.830048,102.546455 
	C380.493256,102.541786 380.351288,102.393692 380.004700,102.015610 
	C380.032318,101.496681 380.264526,101.207726 380.745544,100.781799 
z"/>
</svg>