
<svg version="1.1" id="Layer_1" xmlns="http://www.w3.org/2000/svg" xmlns:xlink="http://www.w3.org/1999/xlink" x="0px" y="0px"
	 width="100%" viewBox="0 0 657 588" enable-background="new 0 0 657 588" xml:space="preserve">
	  <defs>
    <clipPath id="circle">
      <circle cx="328.5" cy="294" r="320" />
    </clipPath>
  </defs>

  <!-- background circle -->
  <circle cx="328.5" cy="294" r="294" fill="#8332AC"/>

  <g clip-path="url(#circle)">
<path fill="#421E68" opacity="1.000000" stroke="none" 
	d="
M0.999997,572.000000 
	C1.000000,555.641785 1.000000,539.283508 1.339504,522.496582 
	C11.086518,531.113831 20.494030,540.159851 30.020258,549.320068 
	C41.955807,535.387939 53.303028,522.142639 64.904045,508.601044 
	C56.211040,500.491425 47.848980,492.690521 39.178337,484.601776 
	C33.877632,489.213257 27.796444,494.609436 21.598185,499.867645 
	C14.788333,505.644684 7.870689,511.294678 1.000006,517.000000 
	C1.000000,345.030640 1.000000,173.061310 1.000000,1.045980 
	C219.930313,1.045980 438.860626,1.045980 657.895508,1.045980 
	C657.895508,196.895340 657.895508,392.790741 657.895508,589.000000 
	C447.975189,589.000000 237.950241,589.000000 27.341934,588.682922 
	C18.172394,582.910583 9.586193,577.455322 0.999997,572.000000 
M120.670685,418.777527 
	C127.129448,413.423309 133.588211,408.069122 140.421494,403.292450 
	C143.107681,406.355286 145.793869,409.418121 149.314972,413.432922 
	C150.345688,405.511780 151.224442,398.758453 152.103195,392.005127 
	C151.710144,391.854767 151.317108,391.704437 150.924072,391.554077 
	C147.287750,395.056366 143.651428,398.558655 139.367569,401.846222 
	C130.470932,391.560120 121.574287,381.274017 113.143341,371.526337 
	C108.616325,375.697021 104.343399,379.641937 100.058609,383.573975 
	C99.210648,384.352142 98.376686,385.642670 97.435020,385.742554 
	C90.244888,386.505249 87.561592,393.022491 82.315811,396.215454 
	C82.726196,396.782440 83.136581,397.349426 83.546974,397.916412 
	C88.290367,394.547821 93.033768,391.179230 97.806641,387.789703 
	C104.691116,397.915192 111.856499,408.453857 118.928032,419.675629 
	C115.752838,422.699127 112.577644,425.722626 108.854675,429.267761 
	C115.934387,431.293945 122.204185,433.088318 129.348251,435.132935 
	C127.787125,432.624451 126.685249,430.979126 125.710754,429.261505 
	C123.785423,425.868042 121.930580,422.434540 120.670685,418.777527 
M410.004211,225.574493 
	C416.350464,201.423141 422.696716,177.271774 428.971741,153.391556 
	C424.806091,150.048782 421.555969,150.766388 417.774231,153.398773 
	C413.720581,156.220428 409.123871,158.331436 404.601196,160.395477 
	C394.928223,164.809998 384.936768,168.569977 375.449188,173.340607 
	C306.495972,208.012253 237.614304,242.826675 168.806732,277.786285 
	C165.257202,279.589722 162.592453,283.134613 159.436981,285.938751 
	C166.703842,289.586456 172.867645,292.828247 179.155701,295.807831 
	C195.024353,303.327148 211.471405,307.273682 229.016098,302.911133 
	C244.706863,299.009552 257.349365,289.929779 268.478638,278.652344 
	C290.357758,256.482025 315.274902,238.122894 340.756989,220.454468 
	C348.622162,215.001007 356.616547,209.733948 364.721466,204.267090 
	C367.230530,208.560471 364.058563,210.493683 362.054749,212.626831 
	C335.930634,240.436737 309.710999,268.156982 283.614288,295.992523 
	C268.566895,312.042542 258.769928,331.597839 247.307465,350.311096 
	C251.132980,353.524475 254.637085,356.467865 258.412048,359.638794 
	C265.876038,347.716919 273.005951,336.328613 280.258362,324.744659 
	C310.182495,342.713501 339.752472,360.469666 369.792389,378.508026 
	C371.645386,371.571075 373.328278,365.348633 374.969177,359.115143 
	C386.614990,314.875854 398.252258,270.634308 410.004211,225.574493 
M187.935196,516.549194 
	C195.643845,523.663452 203.352478,530.777710 211.186859,538.008057 
	C210.500000,536.825317 209.860825,535.724609 209.156540,534.511902 
	C218.431458,525.856995 227.629288,517.273987 238.065842,507.535095 
	C240.788544,510.950226 243.190353,513.962830 246.118469,517.635620 
	C247.627975,510.282440 248.937836,503.901825 250.247696,497.521240 
	C249.929214,497.350220 249.610718,497.179199 249.292236,497.008148 
	C245.285187,500.626312 241.278137,504.244446 236.986206,508.119812 
	C226.836990,497.319458 216.852829,486.694763 206.941742,476.147797 
	C204.699356,478.650330 202.884598,481.041992 200.706207,483.036560 
	C194.696915,488.538666 188.537537,493.876953 182.433624,499.275665 
	C178.030594,503.170074 177.860031,507.462158 182.080246,511.558929 
	C183.746628,513.176575 185.628082,514.572632 187.935196,516.549194 
M80.828796,397.083984 
	C80.924065,397.347778 81.019333,397.611542 81.114586,397.875336 
	C81.209991,397.602173 81.305397,397.329041 80.828796,397.083984 
z"/>
<path fill="#F4EDF7" opacity="1.000000" stroke="none" 
	d="
M1.000006,517.416626 
	C7.870689,511.294678 14.788333,505.644684 21.598185,499.867645 
	C27.796444,494.609436 33.877632,489.213257 39.178337,484.601776 
	C47.848980,492.690521 56.211040,500.491425 64.904045,508.601044 
	C53.303028,522.142639 41.955807,535.387939 30.020258,549.320068 
	C20.494030,540.159851 11.086518,531.113831 1.339504,522.033936 
	C1.000000,520.611084 1.000000,519.222229 1.000006,517.416626 
z"/>
<path fill="#F7F2FA" opacity="1.000000" stroke="none" 
	d="
M0.999997,572.470459 
	C9.586193,577.455322 18.172394,582.910583 26.879295,588.682922 
	C18.423246,589.000000 9.846492,589.000000 1.000000,589.000000 
	C1.000000,583.649963 1.000000,578.295471 0.999997,572.470459 
z"/>
<path fill="#FAF8FD" opacity="1.000000" stroke="none" 
	d="
M409.948181,225.983978 
	C398.252258,270.634308 386.614990,314.875854 374.969177,359.115143 
	C373.328278,365.348633 371.645386,371.571075 369.792389,378.508026 
	C339.752472,360.469666 310.182495,342.713501 280.258362,324.744659 
	C273.005951,336.328613 265.876038,347.716919 258.412048,359.638794 
	C254.637085,356.467865 251.132980,353.524475 247.307465,350.311096 
	C258.769928,331.597839 268.566895,312.042542 283.614288,295.992523 
	C309.710999,268.156982 335.930634,240.436737 362.054749,212.626831 
	C364.058563,210.493683 367.230530,208.560471 364.721466,204.267090 
	C356.616547,209.733948 348.622162,215.001007 340.756989,220.454468 
	C315.274902,238.122894 290.357758,256.482025 268.478638,278.652344 
	C257.349365,289.929779 244.706863,299.009552 229.016098,302.911133 
	C211.471405,307.273682 195.024353,303.327148 179.155701,295.807831 
	C172.867645,292.828247 166.703842,289.586456 159.436981,285.938751 
	C162.592453,283.134613 165.257202,279.589722 168.806732,277.786285 
	C237.614304,242.826675 306.495972,208.012253 375.449188,173.340607 
	C384.936768,168.569977 394.928223,164.809998 404.601196,160.395477 
	C409.123871,158.331436 413.720581,156.220428 417.774231,153.398773 
	C421.555969,150.766388 424.806091,150.048782 428.971741,153.391556 
	C422.696716,177.271774 416.350464,201.423141 409.948181,225.983978 
z"/>
<path fill="#F2EAF6" opacity="1.000000" stroke="none" 
	d="
M187.673401,516.309387 
	C185.628082,514.572632 183.746628,513.176575 182.080246,511.558929 
	C177.860031,507.462158 178.030594,503.170074 182.433624,499.275665 
	C188.537537,493.876953 194.696915,488.538666 200.706207,483.036560 
	C202.884598,481.041992 204.699356,478.650330 206.941742,476.147797 
	C216.852829,486.694763 226.836990,497.319458 236.986206,508.119812 
	C241.278137,504.244446 245.285187,500.626312 249.292236,497.008148 
	C249.610718,497.179199 249.929214,497.350220 250.247696,497.521240 
	C248.937836,503.901825 247.627975,510.282440 246.118469,517.635620 
	C243.190353,513.962830 240.788544,510.950226 238.065842,507.535095 
	C227.629288,517.273987 218.431458,525.856995 209.156540,534.511902 
	C209.860825,535.724609 210.500000,536.825317 211.186859,538.008057 
	C203.352478,530.777710 195.643845,523.663452 187.673401,516.309387 
z"/>
<path fill="#F3ECF7" opacity="1.000000" stroke="none" 
	d="
M119.021881,418.992523 
	C111.856499,408.453857 104.691116,397.915192 97.806641,387.789703 
	C93.033768,391.179230 88.290367,394.547821 83.546974,397.916412 
	C83.136581,397.349426 82.726196,396.782440 82.315811,396.215454 
	C87.561592,393.022491 90.244888,386.505249 97.435020,385.742554 
	C98.376686,385.642670 99.210648,384.352142 100.058609,383.573975 
	C104.343399,379.641937 108.616325,375.697021 113.143341,371.526337 
	C121.574287,381.274017 130.470932,391.560120 139.691986,402.117432 
	C140.016388,402.388641 140.046967,402.714905 140.046967,402.714905 
	C133.588211,408.069122 127.129448,413.423309 120.102539,418.888275 
	C119.363556,418.996887 119.192719,418.994720 119.021881,418.992523 
z"/>
<path fill="#EFE6F4" opacity="1.000000" stroke="none" 
	d="
M118.974960,419.334076 
	C119.192719,418.994720 119.363556,418.996887 119.790489,419.008301 
	C121.930580,422.434540 123.785423,425.868042 125.710754,429.261505 
	C126.685249,430.979126 127.787125,432.624451 129.348251,435.132935 
	C122.204185,433.088318 115.934387,431.293945 108.854675,429.267761 
	C112.577644,425.722626 115.752838,422.699127 118.974960,419.334076 
z"/>
<path fill="#EFE6F4" opacity="1.000000" stroke="none" 
	d="
M140.234222,403.003662 
	C140.046967,402.714905 140.016388,402.388641 140.015747,402.224792 
	C143.651428,398.558655 147.287750,395.056366 150.924072,391.554077 
	C151.317108,391.704437 151.710144,391.854767 152.103195,392.005127 
	C151.224442,398.758453 150.345688,405.511780 149.314972,413.432922 
	C145.793869,409.418121 143.107681,406.355286 140.234222,403.003662 
z"/>
<path fill="#F3ECF7" opacity="1.000000" stroke="none" 
	d="
M81.114799,397.069946 
	C81.305397,397.329041 81.209991,397.602173 81.114594,397.875336 
	C81.019333,397.611542 80.924065,397.347778 81.114799,397.069946 
z"/>
  </g>
</svg>